<?xml version="1.0" encoding="UTF-8"?>
<svg id="_レイヤー_1" data-name=" レイヤー 1" xmlns="http://www.w3.org/2000/svg" viewBox="0 0 130 145">
  <defs>
    <style>
      .cls-1 {
        fill: none;
      }

      .cls-2 {
        fill: #00205b;
      }

      .cls-3 {
        fill: #0a0c0f;
      }

      .cls-4 {
        fill: #fff;
      }

      .cls-5 {
        fill: #b70024;
      }
    </style>
  </defs>
  <g>
    <path class="cls-5" d="M93.4,59.2H.9c.43,1.05.87,2.25,1.32,3.53h89.9c.44-1.29.87-2.48,1.28-3.53Z"/>
    <path class="cls-3" d="M1.7,59.7h91c-.35.93-.71,1.95-1.08,3.03h1.07c.41-1.21.82-2.34,1.21-3.33l.3-.7H.2l.3.7c.38,1,.79,2.13,1.2,3.33h1.09c-.37-1.08-.73-2.1-1.08-3.03Z"/>
    <path class="cls-4" d="M88.9,62.2c2.3-1.5,3.4-3,3.4-4.5s-1.1-3-3.4-4.5c-2.2-1.4-1.4-1.7-9.6-3.9-8.2-2.2-19.6-3.6-32.1-3.6s-23.9,1.4-32.1,3.6c-4.1,1.1-7.4,2.4-9.6,3.9-2.3,1.5-3.4,3-3.4,4.5s1.1,3,3.4,4.5c.28.18.58.36.89.53h81.67c.3-.17.58-.35.84-.53Z"/>
    <path class="cls-3" d="M5.7,61.7c-2-1.3-3.1-2.7-3.1-4s1.1-2.7,3.1-4c2.2-1.5,5.4-2.8,9.5-3.9,8.5-2.3,19.9-3.6,32-3.6s23.5,1.3,32,3.6c4.1,1.2,7.3,2.5,9.5,3.9,2,1.3,3.1,2.7,3.1,4s-1.1,2.7-3.1,4c-.52.36-1.1.7-1.74,1.03h2.12c.07-.04.15-.09.22-.13,2.4-1.6,3.6-3.2,3.6-4.9s-1.2-3.4-3.6-4.9c-2.3-1.5-5.6-2.8-9.8-4-8.7-2.4-20.1-3.7-32.3-3.7s-23.7,1.3-32.3,3.7c-4.2,1.2-7.5,2.5-9.8,4-2.4,1.6-3.6,3.2-3.6,4.9s1.2,3.4,3.6,4.9c.07.04.15.09.22.13h2.22c-.67-.34-1.29-.68-1.84-1.03Z"/>
    <path class="cls-5" d="M5.5,61.6c-2-1.3-3-2.7-3-3.9s1-2.6,3-3.9c2-1.3,5.2-2.7,9.7-3.9,8.5-2.3,19.9-3.6,32-3.6s23.5,1.3,32,3.6c4.6,1.2,7.7,2.6,9.7,3.9,2,1.3,3,2.7,3,3.9s-1,2.6-3,3.9c-.57.37-1.25.75-2.02,1.13h3.93c1.93-1.52,2.99-3.19,2.99-4.93,0-2-1.3-3.9-3.9-5.6-2.6-1.7-6.3-3.1-10.7-4.3-8.9-2.4-20.6-3.6-32-3.6s-23.1,1.2-32,3.6c-4.4,1.1-8.1,2.6-10.7,4.3-2.5,1.7-3.9,3.6-3.9,5.6,0,1.74.99,3.41,2.96,4.93h3.94c-.76-.38-1.43-.76-2.01-1.13Z"/>
    <path class="cls-3" d="M1,57.8c0-1.8,1.2-3.6,3.7-5.2,2.5-1.7,6-3.1,10.6-4.3,8.5-2.3,20.2-3.6,31.9-3.6s23.4,1.3,31.9,3.6c4.6,1.2,8.1,2.7,10.6,4.3,2.5,1.6,3.7,3.4,3.7,5.2,0,1.7-1.09,3.4-3.31,4.93h1.75c1.83-1.54,2.76-3.23,2.76-4.93,0-2.1-1.4-4.2-4.2-6-2.6-1.7-6.2-3.2-10.9-4.4-8.7-2.3-20.3-3.6-32.2-3.6s-23.6,1.3-32.2,3.6c-4.7,1.2-8.4,2.7-10.9,4.4-2.8,1.8-4.2,3.9-4.2,6,0,1.7.87,3.39,2.67,4.93h1.64c-2.23-1.53-3.32-3.23-3.32-4.93Z"/>
    <path class="cls-3" d="M5.8,61.3c-1.7-1.2-2.7-2.4-2.7-3.5s.9-2.3,2.7-3.5c2.1-1.5,5.3-2.8,9.5-3.9,8.5-2.3,19.8-3.6,31.9-3.6s23.4,1.3,31.9,3.6c4.1,1.2,7.3,2.5,9.5,3.9,1.7,1.2,2.7,2.4,2.7,3.5s-.9,2.3-2.7,3.5c-.7.5-1.53.98-2.48,1.43h1.96c.36-.21.71-.42,1.02-.63,2.1-1.4,3.2-2.9,3.2-4.3s-1.1-2.9-3.2-4.3c-2.2-1.5-5.5-2.8-9.8-4-8.5-2.3-20-3.6-32.1-3.6s-23.5,1.2-32.1,3.6c-4.3,1.2-7.6,2.5-9.8,4-2.1,1.4-3.2,2.9-3.2,4.3s1.1,2.9,3.2,4.3c.32.22.66.43,1.02.63h2.16c-1.01-.47-1.91-.94-2.68-1.43Z"/>
    <path class="cls-2" d="M85.32,60.89c0-3.76-17.01-6.73-38.12-6.73s-38.12,2.98-38.12,6.73c0,.64.51,1.26,1.44,1.85h73.35c.94-.59,1.45-1.21,1.45-1.85Z"/>
    <path class="cls-4" d="M5.2,57.8c0-.5-.3-.8-.8-.8s-.8-2.1-.8.8c0,1.71,1.62,3.39,4.56,4.93h3.77c-5.18-1.99-6.73-3.97-6.73-4.93Z"/>
    <path class="cls-4" d="M90.8,57.8c0-.5-.3-.8-.8-.8s-.8-.4-.8.8c0,.96-1.55,2.95-6.73,4.93h3.75c2.97-1.57,4.58-3.27,4.58-4.93Z"/>
  </g>
  <rect class="cls-1" y="3.09" width="130" height="141.91"/>
</svg>