<?xml version="1.0" encoding="UTF-8"?>
<svg id="_レイヤー_1" data-name=" レイヤー 1" xmlns="http://www.w3.org/2000/svg" viewBox="0 0 130 145">
  <defs>
    <style>
      .cls-1 {
        fill: none;
      }

      .cls-2 {
        fill: #00205b;
      }

      .cls-3 {
        fill: #fff;
      }

      .cls-4 {
        fill: #987800;
      }
    </style>
  </defs>
  <g>
    <path class="cls-4" d="M35.13,21.56l90.9-7.8c1.5-.1,2.7,1,2.9,2.4.1,1.5-1,2.7-2.4,2.9l-91.2,4.9c-1.5,0-1.8-2.2-.2-2.4Z"/>
    <path class="cls-3" d="M36.93,77.66V25.66c0-1.5,1.1-2.6,2.4-2.6s2.4,1.2,2.4,2.6v50.1h-4.8s0,1.9,0,1.9Z"/>
    <path class="cls-2" d="M42.63,77.66h-1.7V25.66c0-1-.7-1.8-1.6-1.8s-1.6.8-1.6,1.8v52h-1.7V25.66c0-1.9,1.5-3.5,3.3-3.5s3.3,1.6,3.3,3.5v52h0Z"/>
    <path class="cls-4" d="M35.63,24.56l91.4-3.1c1.5,0,2.7,1.1,2.7,2.6s-1.1,2.7-2.6,2.7c0,0-91.4.2-91.5.2-1.5,0-1.7-2.3,0-2.4h0Z"/>
    <path class="cls-3" d="M50.23,75.76V29.86c0-.6-.2-1.2-.6-1.6l-1.1-1.2c-.9-1-.9-2.7,0-3.7s2.5-1,3.4,0l1.1,1.2c1.3,1.4,2,3.3,2,5.4v45.9h-4.8v-.1Z"/>
    <path class="cls-2" d="M55.93,75.76h-1.7V29.86c0-1.8-.6-3.5-1.8-4.8l-1.1-1.2c-.3-.3-.7-.5-1.1-.5s-.8.2-1.1.5c-.6.7-.6,1.9,0,2.6l1.1,1.2c.5.6.8,1.4.8,2.2v45.9h-1.7V29.86c0-.4,0-.8-.4-1.1l-1.1-1.2c-1.2-1.3-1.2-3.5,0-4.9.6-.7,1.4-1.1,2.3-1.1s1.7.4,2.3,1.1l1.1,1.2c1.4,1.6,2.2,3.7,2.2,5.9v45.9h.2v.1Z"/>
    <path class="cls-3" d="M45.43,75.76V29.86c0-.6-.2-1.2-.6-1.6l-1.1-1.2c-.9-1-.9-2.7,0-3.7s2.5-1,3.4,0l1.1,1.2c1.3,1.4,2,3.3,2,5.4v45.9h-4.8v-.1Z"/>
    <path class="cls-2" d="M51.13,77.66h-1.7V29.86c0-1.8-.6-3.5-1.8-4.8l-1.1-1.2c-.3-.3-.7-.5-1.1-.5s-.8.2-1.1.5c-.6.7-.6,1.9,0,2.6l1.1,1.2c.5.6.8,1.4.8,2.2v47.8h-1.7V29.86c0-.4,0-.8-.4-1.1l-1.1-1.2c-1.2-1.3-1.2-3.5,0-4.9.6-.7,1.4-1.1,2.3-1.1s1.7.4,2.3,1.1l1.1,1.2c1.4,1.6,2.2,3.7,2.2,5.9v47.8h.2v.1Z"/>
    <path class="cls-3" d="M40.63,75.76V30.36c0-.6-.2-1.2-.6-1.6l-1.1-1.2c-.9-1-.9-2.7,0-3.7s2.5-1,3.4,0l1.1,1.2c1.3,1.4,2,3.3,2,5.4v45.4h-4.8v-.1Z"/>
    <path class="cls-2" d="M46.33,75.76h-1.7V30.36c0-1.8-.6-3.5-1.8-4.8l-1.1-1.2c-.6-.6-1.6-.6-2.2,0-.6.7-.6,1.9,0,2.6l1.1,1.2c.5.6.8,1.4.8,2.2v45.4h-1.7V30.36c0-.4,0-.8-.4-1.1l-1.1-1.2c-1.2-1.3-1.2-3.5,0-4.9.6-.7,1.4-1.1,2.3-1.1s1.7.4,2.3,1.1l1.1,1.2c1.4,1.6,2.2,3.7,2.2,5.9v45.4h.2v.1Z"/>
  </g>
  <rect class="cls-1" y="3.09" width="130" height="141.91"/>
</svg>