<svg width="41" height="28" viewBox="0 0 41 28" fill="none" xmlns="http://www.w3.org/2000/svg">
<path d="M39.206 4.37253C38.745 2.65052 37.3917 1.29727 35.6696 0.836312C32.5481 0 20.0391 0 20.0391 0C20.0391 0 7.53001 0 4.4118 0.836312C2.6897 1.29727 1.3364 2.65052 0.875414 4.37253C0.0390625 7.49059 0.0390625 14 0.0390625 14C0.0390625 14 0.0390625 20.5094 0.875414 23.6275C1.3364 25.3495 2.6897 26.7027 4.4118 27.1637C7.53001 28 20.0391 28 20.0391 28C20.0391 28 32.5481 28 35.6663 27.1637C37.3884 26.7027 38.7417 25.3495 39.2027 23.6275C40.0391 20.5094 40.0391 14 40.0391 14C40.0391 14 40.0391 7.49059 39.2027 4.37253H39.206ZM16.0384 19.9991V8.00094L26.4302 14L16.0384 19.9991Z" fill="white"/>
</svg>
