<svg width="40" height="38" viewBox="0 0 40 38" fill="none" xmlns="http://www.w3.org/2000/svg">
<path d="M26.8451 4.84256C25.5437 3.99385 24.6042 2.63648 24.3113 1.05403C24.2479 0.711963 24.2133 0.360217 24.2133 0H20.0593L20.0524 16.6458C19.9827 18.5098 18.4485 20.006 16.5674 20.006C15.9828 20.006 15.4322 19.8599 14.9477 19.6046C13.8363 19.0197 13.0758 17.8548 13.0758 16.5143C13.0758 14.589 14.6423 13.0227 16.5674 13.0227C16.9268 13.0227 17.2713 13.082 17.5977 13.184V8.94371C17.26 8.89773 16.9171 8.86909 16.5674 8.86909C12.3517 8.86909 8.92188 12.2986 8.92188 16.5139C8.92188 19.1004 10.2144 21.3892 12.1859 22.7731C13.4276 23.6448 14.9384 24.1588 16.5674 24.1588C20.783 24.1588 24.2128 20.7292 24.2128 16.5139V8.07322C25.8418 9.24262 27.8379 9.93159 29.9917 9.93159V5.778C28.8315 5.778 27.7508 5.43311 26.8447 4.84216L26.8451 4.84256Z" fill="white"/>
<path d="M0 28.8495H6.693L6.07857 30.7641L4.34218 30.7633V37.8427H2.17855V30.7633L0.00161374 30.7673L0 28.8491L0 28.8495Z" fill="white"/>
<path d="M17.6572 28.8495H24.5051L23.8907 30.7641L22.003 30.7633V37.8427H19.8362V30.7633L17.6592 30.7673L17.6576 28.8491L17.6572 28.8495Z" fill="white"/>
<path d="M7.10352 31.7075H9.24979L9.24737 37.8406H7.11643L7.10352 31.7075Z" fill="white"/>
<path d="M10.1084 28.8198H12.2519V33.008L14.3763 30.9236H16.9353L14.2481 33.5313L17.2577 37.8385H14.896L12.8873 34.8516L12.2519 35.4692V37.8385H10.1084V28.8198Z" fill="white"/>
<path d="M31.8906 28.8193H34.0341V33.0075L36.1586 30.9231H38.7176L36.0303 33.5308L39.0399 37.838H36.6782L34.6695 34.8511L34.0341 35.4687V37.838H31.8906V28.8193Z" fill="white"/>
<path d="M8.17179 31.009C8.76826 31.009 9.25179 30.5255 9.25179 29.929C9.25179 29.3326 8.76826 28.8491 8.17179 28.8491C7.57533 28.8491 7.0918 29.3326 7.0918 29.929C7.0918 30.5255 7.57533 31.009 8.17179 31.009Z" fill="white"/>
<path d="M27.348 30.4966C25.3204 30.4966 23.6768 32.1401 23.6768 34.1676C23.6768 36.1952 25.3204 37.8386 27.348 37.8386C29.3757 37.8386 31.0193 36.1952 31.0193 34.1676C31.0193 32.1401 29.3757 30.4966 27.348 30.4966ZM27.348 35.9523C26.3624 35.9523 25.5632 35.1531 25.5632 34.1676C25.5632 33.1821 26.3624 32.3829 27.348 32.3829C28.3336 32.3829 29.1328 33.1821 29.1328 34.1676C29.1328 35.1531 28.3336 35.9523 27.348 35.9523Z" fill="white"/>
</svg>
