<?xml version="1.0" encoding="UTF-8"?>
<svg id="_レイヤー_1" data-name=" レイヤー 1" xmlns="http://www.w3.org/2000/svg" viewBox="0 0 130 145">
  <defs>
    <style>
      .cls-1 {
        fill: none;
      }

      .cls-2 {
        fill-rule: evenodd;
      }

      .cls-2, .cls-3 {
        fill: #fff;
      }

      .cls-4 {
        fill: #00205b;
      }

      .cls-5 {
        fill: #0a0c0f;
      }

      .cls-6 {
        fill: #b70024;
      }
    </style>
  </defs>
  <path class="cls-5" d="M81.8,129.2v1.6c.7-1.2,1.9-1.9,3.1-1.9,2.4,0,4.2,1.9,4.2,5.7s-1.9,5.8-4.3,5.8-2.2-.6-2.9-1.8v5.4h-2.5v-14.8h2.4ZM81.9,132.7v3.9c.5,1.2,1.3,1.8,2.2,1.8,1.3,0,2.4-1.2,2.4-3.8s-1-3.8-2.2-3.8-1.8.6-2.4,1.9h0Z"/>
  <path class="cls-5" d="M71.6,128.9c3,0,5,2.2,5,5.7s-2,5.8-5,5.8-5-2.2-5-5.7,2-5.8,5-5.8ZM71.6,130.7c-1.6,0-2.4,1.4-2.4,3.9s.8,3.9,2.4,3.9,2.4-1.4,2.4-3.9-.8-3.9-2.4-3.9Z"/>
  <path class="cls-5" d="M62.5,125.6v3.6h2.5v1.8h-2.5v6c0,1.1.4,1.6,1.4,1.6s.8,0,1.3-.1v1.8c-.8.1-1.4.1-2.1.1-2.1,0-3.1-.9-3.1-2.9v-6.5h-1.6v-1.8h1.6v-3l2.5-.6h0Z"/>
  <path class="cls-5" d="M50.9,135.2h-7.4c0,2.1.9,3.5,2.8,3.5s1.9-.6,2.3-2.1l2.3.7c-.7,2.1-2.2,3.2-4.6,3.2s-5.2-2.1-5.2-5.7,2-5.8,5-5.8,4.9,2,4.9,5.8v.5h0l-.1-.1ZM43.5,133.5h4.9c0-1.8-.9-2.9-2.4-2.9s-2.4,1.1-2.5,2.9Z"/>
  <path class="cls-5" d="M39.3,127.6l-.2,2c-1.1,0-1.5.2-2,.6.6.6.9,1.4.9,2.2,0,2.3-1.8,3.6-4.3,3.6s-1,0-1.4-.2c-.5.2-.8.6-.8,1s.3.7,1.5.8l2.5.2c2.9.3,3.8,1.2,3.8,2.8s-1.9,3.3-5.5,3.3-4.9-1.1-4.9-2.7.8-1.7,2-2.1c-1-.2-1.5-.8-1.5-1.6s.5-1.5,1.7-2.3c-1-.6-1.6-1.6-1.6-2.9,0-2.1,1.8-3.5,4.3-3.5s1.7.2,2.3.5c.7-1.3,1.6-1.8,3.2-1.8h0v.1ZM33.8,130.4c-1.1,0-2,.8-2,2s.8,2.2,2,2.2,2-.7,2-2.1-.9-2-2-2h0v-.1ZM35.1,139.8l-2.7-.3c-.9.3-1.5.8-1.5,1.5s1.2,1.5,3,1.5,3.2-.7,3.2-1.5-.4-1.1-2-1.3h0v.1Z"/>
  <path class="cls-5" d="M20,132.6l-2.4-.6c.6-2,2.2-3,4.5-3s4.3,1.2,4.3,3.6v4.4c0,1.3,0,2.3.2,3.2h-2.3c0-.5-.1-.8-.2-1.4-.8,1.1-2.1,1.7-3.5,1.7-2,0-3.4-1.3-3.4-3.3s1.2-3.2,3.6-3.6c.9-.2,2-.3,3.1-.3v-.6c0-1.4-.6-1.9-1.9-1.9s-1.9.7-2.1,1.9h0l.1-.1ZM24,136.8v-2c-1.1,0-1.8.2-2.5.3-1.2.3-1.8.9-1.8,1.9s.6,1.7,1.8,1.7,1.9-.6,2.6-1.8h-.1v-.1Z"/>
  <path class="cls-5" d="M7.9,129.2v1.6c.7-1.2,1.9-1.9,3.1-1.9,2.4,0,4.2,1.9,4.2,5.7s-1.9,5.8-4.3,5.8-2.2-.6-2.9-1.8v5.4h-2.5v-14.8h2.4ZM8,132.7v3.9c.5,1.2,1.3,1.8,2.2,1.8,1.3,0,2.4-1.2,2.4-3.8s-1-3.8-2.2-3.8-1.8.6-2.4,1.9h0Z"/>
  <path class="cls-2" d="M81.8,130.8v-1.6h-2.4v14.8h2.5v-5.4c.3.5.6.9,1,1.2.5.4,1.1.6,1.9.6,2.4,0,4.3-2.1,4.3-5.8s-1.8-5.7-4.2-5.7-1.5.3-2.1.7c-.4.3-.7.7-1,1.1h0v.1ZM82.8,128.5v-.3h-4.4v16.8h4.5v-4c.6.3,1.2.4,1.9.4,1.5,0,2.9-.7,3.8-1.9,1-1.2,1.5-2.9,1.5-4.9s-.5-3.7-1.4-4.9-2.3-1.8-3.8-1.8-1.4.2-2.1.5h0v.1ZM84.1,138.5c-.9,0-1.7-.7-2.2-1.8v-3.9c.6-1.3,1.4-1.9,2.4-1.9s2.2,1.1,2.2,3.8-1.1,3.8-2.4,3.8h0ZM82.9,133v3.4c.4.8.9,1.1,1.2,1.1s.6-.1.9-.5.5-1.1.5-2.3-.2-1.9-.5-2.3c-.2-.3-.5-.4-.8-.4s-.9.2-1.4,1.1h.1v-.1Z"/>
  <path class="cls-2" d="M76.6,134.6c0-3.6-2-5.7-5-5.7s-5,2.2-5,5.8,2,5.7,5,5.7,5-2.2,5-5.8ZM69.2,134.7c0-2.5.8-3.9,2.4-3.9s2.4,1.4,2.4,3.9-.8,3.9-2.4,3.9-2.4-1.4-2.4-3.9ZM76,129.8c1.1,1.2,1.6,2.9,1.6,4.9s-.5,3.7-1.6,4.9-2.6,1.9-4.4,1.9-3.3-.6-4.4-1.9c-1.1-1.2-1.6-2.9-1.6-4.9s.6-3.7,1.6-4.9c1.1-1.2,2.6-1.9,4.4-1.9s3.3.6,4.3,1.9h.1ZM70.7,132.3c-.3.4-.5,1.2-.5,2.4s.2,2,.4,2.4c.2.4.5.5.9.5s.7-.2.9-.5c.3-.4.5-1.2.5-2.4s-.2-2-.4-2.4c-.2-.4-.5-.5-.9-.5s-.7.2-.9.5Z"/>
  <path class="cls-2" d="M63.5,124.3v3.8h2.5v3.8h-2.5v5.5h1.4l1.3-.3-.2,3.9h-.8c-.8.2-1.4.2-2.1.2-1.2,0-2.2-.2-3-1-.8-.7-1.1-1.8-1.1-2.9v-5.5h-1.6v-3.8h1.6v-2.8l4.5-1h0v.1ZM60,129.2h-1.6v1.8h1.6v6.5c0,2,1,2.9,3.1,2.9s1.3,0,2-.1v-1.8c-.3,0-.6.1-.9.1h-.3c-.9,0-1.4-.5-1.4-1.6v-6h2.5v-1.8h-2.5v-3.6l-2.5.6v3h0ZM63.6,137.6h0Z"/>
  <path class="cls-2" d="M50.9,135.2v-1c-.2-3.4-2.2-5.3-4.9-5.3s-5,2.2-5,5.8,1.9,5.7,5.2,5.7,3.4-.8,4.2-2.3c.2-.3.3-.6.4-.9l-2.3-.7v.2c-.4,1.3-1.2,1.8-2.3,1.8s-2.4-.9-2.7-2.5v-1h7.4s0,.2,0,.2ZM44.5,136.2c0,.4.2.7.4.9.3.3.6.6,1.3.6s.6,0,.8-.3c.2-.2.4-.5.6-1.1h0c0-.1-3-.1-3-.1h-.1ZM50.8,136.2h1.1v-1.5c0-2-.6-3.7-1.7-4.9-1.1-1.2-2.6-1.8-4.2-1.8s-3.3.7-4.4,1.9c-1.1,1.2-1.6,2.9-1.6,4.9s.5,3.7,1.6,4.9,2.7,1.8,4.6,1.8,2.6-.3,3.5-1c1-.7,1.6-1.7,2-2.9l.3-1-1.3-.4h.1ZM43.5,133.5c0-.4,0-.7.2-1,.3-1.2,1.1-1.9,2.4-1.9s1.9.7,2.2,1.9c0,.3,0,.6.2,1h-5ZM44.7,132.5h2.5c0-.2-.2-.4-.3-.5-.2-.2-.4-.4-.9-.4s-.8.2-1,.4c0,.1-.2.3-.3.5Z"/>
  <path class="cls-2" d="M39.3,127.6h-1c-1,.2-1.6.7-2.2,1.7-.6-.3-1.5-.5-2.3-.5-2.5,0-4.3,1.4-4.3,3.5s.3,1.6.8,2.2c.2.3.5.5.8.7-.3.2-.6.4-.9.6-.6.5-.8,1-.8,1.7s.1.7.4,1,.6.5,1.1.6h0c-.4.2-.8.4-1.1.6-.5.4-.8.9-.8,1.5,0,1.6,1.8,2.7,4.9,2.7s5.5-1.4,5.5-3.3-.9-2.6-3.8-2.8l-2.5-.2c-1.3-.1-1.5-.3-1.5-.8s.3-.7.8-1c.4.1,1,.2,1.4.2,2.5,0,4.3-1.3,4.3-3.6s-.2-1.4-.7-1.9c0,0,0-.2-.2-.3.3-.2.5-.4.9-.5h1l.2-2h0v-.1ZM32.4,139.5c-.5.2-.8.4-1.1.6-.3.3-.4.6-.4.9,0,1,1.2,1.5,3,1.5s3.2-.7,3.2-1.5-.4-1.1-2-1.3l-2.7-.3h0v.1ZM35,140.8h0l-2.5-.3c-.3.1-.4.2-.5.3v.2h0s0,.1.3.2c.3.2.9.3,1.8.3s1.6-.2,2-.3c.2,0,.2-.1.2-.2h-.3c-.2,0-.5-.1-.9-.1h0l-.1-.1ZM38.7,130.7h1.4l.3-4h-1.1c-.9,0-1.7,0-2.4.5-.5.3-.8.6-1.2,1-.6-.2-1.3-.3-2-.3-1.4,0-2.7.4-3.7,1.2-1,.8-1.6,2-1.6,3.3s.3,2.1,1,2.8c-.7.6-1.1,1.4-1.1,2.3s.2,1.1.6,1.6c-.6.5-1,1.2-1,2.2s.7,2.2,1.8,2.8c1,.6,2.5.9,4.1.9s3.5-.4,4.6-1.1c1.2-.8,1.9-1.9,1.9-3.2s-.3-2-1.2-2.7c-.8-.7-2-1-3.5-1.1h0c.7-.2,1.4-.5,1.9-1,1-.8,1.6-2,1.6-3.4s0-1.2-.4-1.7h0v-.1ZM31.8,132.4c0-1.2.9-2,2-2s2,.7,2,2-.9,2.1-2,2.1-2-.7-2-2.2h0v.1ZM33,131.7c0,.1-.3.4-.3.7s0,.8.3.9c0,.1.4.2.7.2s.6-.1.7-.2c0-.1.3-.4.3-.9s0-.6-.3-.8c0-.1-.4-.3-.7-.3s-.6.1-.7.3h0v.1Z"/>
  <path class="cls-2" d="M20,132.6c0-.2,0-.4.2-.6.3-.9,1.1-1.4,1.9-1.4,1.3,0,1.9.6,1.9,1.9v.6c-1.1,0-2.2.1-3.1.3h0c-.2,0-.4,0-.6.1-2,.5-3,1.7-3,3.5s1.4,3.3,3.4,3.3,1.8-.3,2.6-.8c.3-.2.7-.6.9-.9,0,.6,0,.9.2,1.3h0c0,.1,2.3.1,2.3.1v-7.6c0-2.4-1.4-3.6-4.3-3.6s-3.4.7-4.2,2.1c-.2.3-.3.6-.4.9l2.4.6-.2.2h0ZM23.4,140.7v.4h4.4v-1.1c-.2-.9-.3-1.9-.3-3.1v-4.4c0-1.4-.4-2.6-1.4-3.5-1-.8-2.3-1.1-3.8-1.1s-2.5.3-3.5.9c-1,.7-1.7,1.6-2,2.8l-.3,1,2.2.6c-.4.2-.8.5-1.2.9-.8.8-1.2,1.9-1.2,3.1s.4,2.3,1.2,3.1c.8.8,1.9,1.2,3.1,1.2s1.9-.2,2.7-.7h0l.1-.1ZM21.1,132.5c.6-.1,1.3-.2,1.9-.2,0-.3-.1-.4-.1-.5,0,0-.2-.2-.7-.2s-.5,0-.7.2c-.1.1-.3.3-.4.6h0v.1ZM24,136.8c-.6,1.2-1.6,1.8-2.6,1.8s-1.8-.6-1.8-1.7.6-1.6,1.8-1.9c.4-.1.9-.2,1.5-.3h1v2h.1v.1ZM23,135.8v.7c-.5.8-1.1,1.1-1.6,1.1s-.6-.1-.6-.2c0,0-.1-.2-.1-.5s0-.4.2-.5c.1-.1.4-.3.9-.4.4,0,.8-.2,1.3-.2h-.1Z"/>
  <path class="cls-2" d="M7.9,130.8v-1.6h-2.4v14.8h2.5v-5.4c.3.5.6.9,1,1.2.5.4,1.1.6,1.9.6,2.4,0,4.3-2.1,4.3-5.8s-1.8-5.7-4.2-5.7-1.5.3-2.1.7c-.4.3-.7.7-1,1.1h0v.1ZM8.9,128.5v-.3h-4.4v16.8h4.5v-4c.6.3,1.2.4,1.9.4,1.5,0,2.9-.7,3.8-1.9,1-1.2,1.5-2.9,1.5-4.9s-.5-3.7-1.4-4.9-2.3-1.8-3.8-1.8-1.4.2-2.1.5h0v.1ZM8,136.6v-3.9c.6-1.3,1.4-1.9,2.4-1.9s2.2,1.1,2.2,3.8-1.1,3.8-2.4,3.8-1.7-.7-2.2-1.8h0ZM9,136.4c.4.8.9,1.1,1.2,1.1s.6-.1.9-.5c.3-.4.5-1.1.5-2.3s-.2-1.9-.5-2.3c-.2-.3-.5-.4-.8-.4s-.9.2-1.4,1.1v3.4h.1v-.1Z"/>
  <rect class="cls-1" y="3.09" width="130" height="141.91"/>
  <g>
    <path class="cls-6" d="M26.9,100.7h39.7v11.3h0c0,1.1-.8,2.2-2.1,2.7-11.4,4.1-24.5,3.7-35.4,0-1.3-.4-2.2-1.6-2.2-2.7h0v-11.2h0v-.1Z"/>
    <path class="cls-5" d="M47.2,118.1c-6.1,0-12.3-1-18.2-3-1.5-.5-2.5-1.8-2.5-3.2v-11.7h40.7v11.8c0,1.3-1,2.6-2.5,3.1-5.5,2-11.5,2.9-17.6,2.9h.1v.1ZM27.4,101.2v10.7c0,.9.8,1.9,1.8,2.2,11.5,3.9,24.3,3.9,35.1,0,1-.4,1.8-1.3,1.8-2.2v-10.8H27.4v.1Z"/>
    <path class="cls-6" d="M2.22,62.73c2.28,6.56,4.68,15.65,5.68,21.67h-.1c1.3,7.9,4.4,14.1,10.3,18.5,5.9,4.4,14.9,7.1,28.1,7.8h1.8c13.2-.7,22.1-3.4,28.1-7.8s9-10.6,10.3-18.5c1-6.02,3.47-15.11,5.72-21.67H2.22Z"/>
    <path class="cls-5" d="M91.62,62.73c-2.23,6.61-4.59,15.64-5.62,21.57-1.4,8.3-4.6,14.1-10.1,18.2-6.1,4.5-15.2,7-27.8,7.7h-1.8c-12.6-.6-21.7-3.2-27.8-7.7-5.5-4.1-8.7-9.9-10.1-18.2-.95-5.93-3.37-14.96-5.62-21.57h-1.09c2.24,6.61,4.69,15.76,5.7,21.77,1.5,8.6,4.8,14.5,10.5,18.8,6.3,4.7,15.6,7.2,28.4,7.9h1.8c12.9-.6,22.1-3.2,28.4-7.9,5.7-4.2,9.1-10.2,10.5-18.8.93-5.91,3.43-15.17,5.69-21.77h-1.07Z"/>
    <path class="cls-3" d="M6.39,62.73c2.16,1.22,5.13,2.41,8.71,3.37,8.2,2.2,19.6,3.6,32.1,3.6s23.9-1.4,32.1-3.6c3.61-.97,6.59-2.09,8.76-3.37H6.39Z"/>
    <path class="cls-5" d="M86.96,62.73c-2.04,1.07-4.64,2.03-7.76,2.87-8.5,2.3-19.9,3.6-32,3.6s-23.5-1.3-32-3.6c-3.07-.9-5.64-1.86-7.66-2.87h-2.22c2.29,1.45,5.51,2.8,9.58,3.87,8.7,2.4,20.1,3.7,32.3,3.7s23.7-1.3,32.3-3.7c4.07-1.16,7.29-2.42,9.58-3.87h-2.12Z"/>
    <path class="cls-6" d="M86.88,62.73c-1.92.95-4.46,1.91-7.68,2.77-8.5,2.3-19.9,3.6-32,3.6s-23.5-1.3-32-3.6c-3.28-.86-5.79-1.82-7.69-2.77h-3.94c.29.23.6.45.94.67,2.6,1.7,6.3,3.1,10.7,4.3,8.9,2.4,20.6,3.6,32,3.6s23.1-1.2,32-3.6c4.4-1.1,8.1-2.6,10.7-4.3.32-.22.62-.44.91-.67h-3.93Z"/>
    <path class="cls-5" d="M90.09,62.73c-.13.09-.25.18-.39.27-2.5,1.7-6,3.1-10.6,4.3-8.5,2.3-20.2,3.6-31.9,3.6s-23.4-1.3-31.9-3.6c-4.6-1.2-8.1-2.7-10.6-4.3-.14-.09-.26-.18-.39-.27h-1.64c.43.36.89.72,1.43,1.07,2.6,1.7,6.2,3.2,10.9,4.4,8.7,2.3,20.4,3.6,32.2,3.6h.1c11.9,0,23.6-1.3,32.2-3.6,4.7-1.2,8.4-2.7,10.9-4.4.54-.34,1-.7,1.44-1.07h-1.75Z"/>
    <path class="cls-5" d="M47.2,69.7c12.1,0,23.5-1.2,32.1-3.6,3.68-1.03,6.63-2.13,8.78-3.37h-1.96c-1.88.91-4.22,1.73-7.02,2.47-8.5,2.3-19.8,3.6-31.9,3.6s-23.4-1.3-31.9-3.6c-2.66-.78-4.94-1.6-6.82-2.47h-2.16c2.15,1.24,5.1,2.34,8.78,3.37,8.5,2.3,19.9,3.6,32.1,3.6Z"/>
    <path class="cls-4" d="M83.87,62.73H10.52c4.52,2.84,19.18,4.88,36.68,4.88s32.13-2.05,36.67-4.88Z"/>
    <path class="cls-3" d="M82.47,62.73c-1.29.49-2.8.99-4.57,1.47-8.1,2.3-19.1,3.5-30.7,3.5s-22.5-1.3-30.7-3.5c-1.77-.48-3.28-.97-4.57-1.47h-3.77c2.04,1.07,4.71,2.07,7.94,2.97,8.3,2.2,19.3,3.5,31.1,3.5s22.8-1.2,31.1-3.5c3.24-.89,5.9-1.9,7.92-2.97h-3.75Z"/>
  </g>
</svg>