<svg width="34" height="33" viewBox="0 0 34 33" fill="none" xmlns="http://www.w3.org/2000/svg">
<path d="M9.70554 0.114203C7.94992 0.197033 6.75068 0.478193 5.70292 0.888712C4.6182 1.31144 3.69881 1.87838 2.78404 2.79677C1.86828 3.71582 1.30595 4.63685 0.886189 5.72254C0.479955 6.77293 0.204402 7.97281 0.127181 9.7294C0.0499603 11.4896 0.0324701 12.0509 0.0410502 16.5317C0.0496303 21.0118 0.0694305 21.5741 0.153251 23.3346C0.237072 25.0899 0.517245 26.2884 0.92777 27.3369C1.35116 28.4216 1.91745 29.3406 2.83618 30.2557C3.75458 31.1708 4.67628 31.7328 5.76265 32.1529C6.81206 32.5588 8.01229 32.835 9.76857 32.9119C11.5285 32.9894 12.0905 33.0066 16.5699 32.998C21.0514 32.9894 21.6134 32.9696 23.3733 32.8861C25.1289 32.8023 26.3268 32.5211 27.3759 32.1116C28.4606 31.6872 29.38 31.1219 30.2948 30.2032C31.2096 29.2848 31.7719 28.3632 32.1916 27.2768C32.5979 26.2274 32.8744 25.0272 32.9507 23.2719C33.0275 21.511 33.0457 20.9484 33.0371 16.4686C33.0285 11.9882 33.0084 11.4269 32.9249 9.66736C32.8414 7.91077 32.5603 6.71254 32.1504 5.6638C31.7263 4.5791 31.1607 3.66071 30.2423 2.74496C29.3239 1.8302 28.4022 1.26689 27.3158 0.848122C26.2658 0.441893 25.0662 0.165023 23.3099 0.0891232C21.5504 0.0105833 20.9887 -0.00657665 16.5076 0.00200334C12.0274 0.0105833 11.4658 0.0297233 9.70586 0.114203M9.89826 29.9422C8.28949 29.8722 7.41597 29.6049 6.83384 29.3809C6.06295 29.0826 5.51284 28.7248 4.93368 28.1503C4.35585 27.5735 3.99713 27.025 3.69617 26.2558C3.47012 25.6737 3.19786 24.8011 3.12262 23.1924C3.04078 21.4533 3.02197 20.9316 3.01405 16.5257C3.00547 12.1212 3.02164 11.5992 3.09754 9.85876C3.16651 8.25133 3.43547 7.3765 3.65888 6.79504C3.9572 6.02317 4.31361 5.47405 4.88946 4.89491C5.46631 4.31609 6.01477 3.95837 6.78467 3.65741C7.36647 3.43004 8.23867 3.1601 9.84678 3.08387C11.5869 3.00137 12.1083 2.98388 16.5128 2.9753C20.9184 2.96672 21.4405 2.98223 23.1809 3.05879C24.7883 3.12875 25.6632 3.39506 26.2443 3.62012C27.0159 3.91844 27.566 4.27385 28.1445 4.85069C28.723 5.42752 29.0817 5.97499 29.3827 6.74653C29.6097 7.32667 29.88 8.20018 29.9559 9.80761C30.0387 11.5477 30.0575 12.0694 30.0654 16.4743C30.074 20.8801 30.0578 21.4018 29.9816 23.1412C29.9117 24.75 29.6447 25.6238 29.4203 26.2066C29.122 26.9768 28.7652 27.5269 28.189 28.1061C27.6128 28.6829 27.0644 29.0426 26.2938 29.3436C25.7133 29.5703 24.8398 29.8409 23.2327 29.9171C21.4926 29.999 20.9712 30.0178 16.565 30.0257C12.1604 30.0343 11.639 30.0178 9.89859 29.9422M23.3492 7.6801C23.3512 8.77273 24.2399 9.65746 25.3325 9.65548C26.4258 9.6535 27.3106 8.76547 27.3089 7.67251C27.3066 6.57988 26.4182 5.69449 25.3249 5.69647C24.2316 5.69845 23.3469 6.58714 23.3489 7.67977M8.06707 16.5162C8.07598 21.1956 11.8766 24.9807 16.5551 24.9714C21.2339 24.9622 25.021 21.1629 25.0121 16.4835C25.0028 11.8058 21.2019 8.01868 16.5224 8.02759C11.844 8.03683 8.05783 11.8378 8.06707 16.5162ZM11.0391 16.5102C11.0338 13.4732 13.492 11.0058 16.5284 11.0006C19.5654 10.9946 22.0331 13.4518 22.0391 16.4894C22.045 19.5271 19.5868 21.9938 16.5491 21.9998C13.5125 22.0057 11.0447 19.5482 11.0391 16.5106" fill="white"/>
</svg>
