<?xml version="1.0" encoding="UTF-8"?>
<svg id="_レイヤー_1" data-name="レイヤー_1" xmlns="http://www.w3.org/2000/svg" version="1.1" viewBox="0 0 200 59">
  <!-- Generator: Adobe Illustrator 29.3.1, SVG Export Plug-In . SVG Version: 2.1.0 Build 151)  -->
  <defs>
    <style>
      .st0 {
        fill-rule: evenodd;
      }

      .st0, .st1 {
        fill: #fff;
      }

      .st2 {
        fill: #b70024;
      }
    </style>
  </defs>
  <path class="st2" d="M200,20h-13.5v37.5h13.5V20Z"/>
  <path class="st0" d="M122.4,27.2c-.1-.1-2.5-1.1-2.9-1.6,0-.2-.2-1.2.8-2.1,1.4-1.3,5.4-3,6.1-3,3.2.1,4.2,2.3,4.7,2.9.4.5.3,2,.2,2,0,0-.8,8.4-.7,9,2-.9,9.2-4.3,9.2-5.3,0-.5.1-2.3,2.5,0,.6.3,3.5,4.4,2.8,6.7-.2.6-1.3,1.6-1.6,1.7-1.5.8-4,1.6-6,2.4-2.1.8-5.8,2.8-7.6,4.2-.6.5-2.5,2.2-2.4,3.9,1.3.7,5.7.6,7.7.5.2,0,3,0,6.2-1.8,2.5-.3,5.3,3,4.2,7.2-.6.7-2,1.1-2.9,1.3-.1,0-4.3,1.3-7.4,1.3-5.1,0-10.1-.4-12.8-1.8-1.6-.8-3.6-2.8-4.1-4.2-1-1.4-.7-3.4-.3-5.5.7-4.2,4.9-6.7,5-6.9"/>
  <path class="st0" d="M87.4,51.1c-.5-.6-1.5-2.8-1.5-4,0-.6.7-.7.8-.6,5.2,3.9,8.6,4.8,13.3,3.7,3.5-.8,6.8-4.3,5.2-9.9-.4-1.3-1-2.1-2.3-1.6-.8.3-6.3,3.5-12.7,4-.7,0-2.7-.1-3-.2-1.9-.7-4.4-2.3-3.7-5.4.4-1.6,2.8-3.9,5.7-4.8.6-.2-1.3,1.9-.3,1.8,1-.1,5.9-1,10.6-3,1.7-.7,4.4-1.2,7.3-.8,2.1.3,6.6,3.4,7.4,7,.7,3,1.3,6.4-.3,10.3-2.6,6.4-8.5,9.8-14,9.8s-9-2.1-12.3-6.5"/>
  <path class="st0" d="M97.6,30c-2.3.8-4,.6-3.9.5,1-.6,2-.9,3.5-1.8.2-.2,1.4-.8,1.3-1.1,0-.3-1.6-1.4-4.2-1.9-2.5-.5-5.5-.2-5.8-1.1-.1-.4,0-.7.1-1,0,0,2.3-2.1,4-2.6,6.5-1.9,11-.9,12.4-.5,1.9.5,4.8,3.2,5.1,3.7.9.7,1.4,2.3,1.5,3.6,0,.6-.6,1.8-1,2.1-.6.5-2.6.4-3.8,0-.4-.1-4.7-1.4-6.2-.7-.9.4-2.8.7-3.2.8"/>
  <path class="st0" d="M164.5,21.3c-1.2-.1-4.8.7-5.4,1.1-.6.4-1.5,2.3-.7,2.5.8.2,1.8.4.9,2.1-.9,1.7-4.8,9.5-5.8,11.7-1,2.3-3.8,10.5-4,11.5-.2,1-.4,2,.4,3,.8,1,3.4,3.3,4.2,3.4.8,0,2.2,0,2.5-1.6.3-1.5,3.3-7.8,6.3-9.2,0,0,.1,5.3,2,7.5,1.9,2.2,4.8,4.5,10.6,3.8,4.7-.5,8.4-6.5,8.4-11,0-4-3.1-9.8-4.2-11-.4-.4-2.7-2.6-2.5-1.3.2,1.3.9,5.9.8,7.4,0,1.5-.3,5.8-3.1,6.6-2.8.8-4.4-.6-4.4-2.8s.6-5.5-1.1-7c-1.7-1.5-4.1-2.2-5.3-1-1.2,1.2-3,2.7-3,2.7,0,0,3.1-6.3,4.8-8.3,1.8-2.1,4.5-4.1,3.5-6.4s-3.6-3.6-5-3.7"/>
  <path class="st0" d="M143.2,22.2c.2-.1,4.2,2.7,4.9,3.6.8.9,1.6,4.5.7,5-.9.5-1.9,0-2.4-.3-.5-.3-1.3-1-1.9-1.9-.6-.9-2-4.3-2.1-4.8,0-.6.4-1.5.7-1.6"/>
  <path class="st0" d="M148.2,19.9c.2-.1,4.2,2.7,4.9,3.6.8.9,1.6,4.5.7,5-.9.5-1.9,0-2.4-.3s-1.3-1-1.9-1.9c-.6-.9-2-4.3-2.1-4.8,0-.6.4-1.5.7-1.6"/>
  <path class="st0" d="M99.4,2.3c0,.7-1,.9-1.8,1.3-1.2.5-2.2.9-3.5,1.3-.9.3-1.1.5-.7.8.4.3,3.1.3,3.9.1.7-.1,2.2-.5,2.8-.8.6-.3,2-.8,2.1-1.3,0-.5-.6-1.8-1.4-1.9-.8-.1-1.4-.3-1.4.4"/>
  <path class="st0" d="M96.1,11.3c0-.3,0-1.4,0-1.6,0-.4,0-1.2,0-1.5.2-.3.1-.6,0-1,0-.2-.3-.6-.4-.7,0,0-1.3-.6-1.6-.3-.4.2-.3.6-.3.8,0,.2.2.4.2.6,0,.1,0,.3,0,.5,0,0,0,2.3,0,2.5-.1.4,0,.6,0,.9.1.3,1.3,1,1.6,1,.3,0,.4-.3.4-1.1"/>
  <path class="st0" d="M101.9,10.9c0-.3,0-1.4,0-1.6,0-.4,0-1.2,0-1.5.2-.3.1-.6,0-1,0-.2-.3-.6-.4-.7,0,0-1.3-.6-1.6-.3-.5.2-.3.6-.3.8,0,.2.2.4.2.6,0,.1,0,.3,0,.5,0,0,0,2.3,0,2.5-.1.4,0,.6,0,.9.1.3,1.4,1,1.7,1,.3,0,.4-.3.4-1.1"/>
  <path class="st0" d="M100.1,9.2c.3,0,.4.3.6.4.2.1.3.3.4.4.2.2.4.6.3.8-.1.2-.2.3-.4.4-.1,0-.3,0-.3,0-.2,0-.3,0-.5,0-.3,0-1.3,0-1.7.1-.7,0-1.5.1-2.2.2-.4,0-.7.1-1,.1-.3,0-.5,0-.6-.1,0,0,0,0,0,0,0,0,0,0-.1,0,0,0-.1-.2-.3-.3,0,0-.4-.6-.3-.8,0-.2.2-.5.4-.5,0,0,1.1,0,1.6,0,.7,0,1.4-.1,2.2-.2.4,0,1.4,0,1.7-.1.2,0,.3-.1.5-.1Z"/>
  <path class="st0" d="M99.2,2.4c-.1,1.3-.2,11.4-.2,12,.1,0,2,0,2,0,0-.3.4-1.6.3-1.9.1-1,.5-.8.9,1,0,.1.3,1.2.4,1.5,0,.4.4.9,0,1.3-.3.5-1.8.6-2.1.6-.8,0-2.5,0-3,0-.2,0-.8-.2-1.1-.7-.3-.5.2-10.5.2-13.5,0-.5-.6-.9-.2-1.5.2-.4,1.6-.3,2.3.2.6.4.4.8.4,1.2"/>
  <path class="st0" d="M85.8,16.3s0-.1-.1-.1c.4-.4.6-.9.9-1.4.2-.4.3-.7.4-1.1.1-.4.2-.9.2-1.3,0-.2,0-.5-.1-.7,0-.3,0-.4.1-.4.4,0,1.2.2,1.4.2.4.1.7.5.4.8,0,1.3-.4,2.4-.9,3.5,0,.1-.4.4-.4.4-.2.2-.5.3-.7.2-.2,0-1.1-.1-1.2-.1"/>
  <path class="st0" d="M86.5,8.7c.3,0,.7.1.9,0,.2,0,.6,0,.9-.6-.3-.4-1.2-1.9-1.5-2-.5-.2-.7-1.1.4-1.9.9-.6,1,0,1.1,0,.2,0,1.2-2,1.1-2.2,0-.1-.3-.3-.4-.4,0,0-.1-.3,0-.5.1,0,1.2-.2,1.4-.2.2,0,.6.1.8.2.2.1.5.3.6.4,0,.2.4.3.4.8,0,.3-.1.4-.4.6-.1.3-2.1,2.3-2.3,2.5.2.3.3.4.5.7.2,0,1.8-2,1.8-2.1,0,0,.1-.2.2-.3,0,0,.3,0,.4,0,.2,0,.8.9.8,1,0,.1.2.7,0,.9,0,0-1.4,1.6-1.4,1.6-.3.4-.9.9-1.2,1.1.5,0,1.3-.3,1.7-.4,0-.2,0-.6,0-.8,0-.3.2-.4.4-.3.1,0,.4.4.7.7.3.2,1.2,2.2,1.2,2.6,0,.2.2.5.1.7,0,0,0,.2,0,.3-.1.4-.7.5-.7.5-.4,0-.8-.5-.9-.7,0-.2-.3-.6-.3-.8-.2,0-.9,0-1.3.2,0,1.4,0,3.9,0,4,0,.2,0,.8,0,1.2,0,.3-.2.6-.4.9-.1,0-.3.2-.4.3,0,0-.5,0-.6,0,0,0-.4-.4-.5-.5-.1-.2-.4-1.4-.8-1.6,0,0,0-.2,0-.3.1,0,.5,0,.6,0,.2,0,.2-.3.2-.5,0-.4,0-1.2,0-1.8,0-.6,0-1.4,0-1.6-.3,0-1.2.2-1.2.2-.2,0-.3.3-.6.3-.3,0-.5,0-.8-.2-.1,0-.6-1.3-.6-1.3,0,0,0-.4,0-.5,0-.3.1-.4.3-.4"/>
  <path class="st0" d="M91.8,11.2s.2-.1.2-.2c0,0,.5.2.5,0,.1,0,.2.1.3.2.4.3.7.7.9,1.1.2.3.4.7.5,1.1.1.4.3,1.2,0,1.7,0,0-.4.5-.5.6-.2.1-.4.2-.7.1-.2-.1-.4-.5-.5-.7-.3-.8-.5-1.5-.6-2.2,0,0-.4-1.4-.3-1.8"/>
  <path class="st0" d="M116.7,8c.7.6.9,1.9.6,2.1-.1.2-.5.2-.7.2,0,0-.9,0-1,0-.2,0-.9,0-1.8,0-.5,0-1.7,0-1.8,0-.2,0-.4.1-.5.1,0,0-.6-.1-.9-.8-.4-.7-.2-1.3-.2-1.4.2-.3.4-.3.7-.2,0,0,1.7,0,2.8-.1.8,0,1.4,0,1.4,0,0,0,.4-.2.5-.2.2,0,.7.3.8.4Z"/>
  <path class="st0" d="M117.4,2.7c.7.7,1.1,1.9.9,2.1,0,.2-.5.3-.7.3,0,0-.8,0-1,0-.2,0-3.3,0-5.6,0-2.2,0-3.9,0-4,0-.2,0-.6,0-.8,0,0,0-.6,0-1.1-.8-.4-.7-.4-1.6-.3-1.7.1-.4.4-.3.6-.2,0,0,2.8,0,5.3,0,2.2,0,5.2,0,5.2,0,0,0,.4-.2.5-.2.2,0,.7.3.8.5Z"/>
  <path class="st0" d="M118.3,13.2c.8.7,1.3,2.1,1,2.3,0,.2-.6.3-.8.3,0,0-.9,0-1.1,0-.2,0-3.6,0-6.2,0-2.5,0-4.9,0-5.1,0-.2,0-.7,0-.9,0,0,0-.7,0-1.2-.9-.5-.8-.4-1.6-.4-1.7.1-.4.5-.3.7-.3,0,0,3.6,0,6.5,0,2.5,0,5.8,0,5.9,0,0,0,.5-.2.6-.2.2,0,.8.4,1,.5Z"/>
  <path class="st0" d="M113.4,14.7c0-.2-.1-8.8,0-9,.4-.5.3-1.1,0-1.3-.8-1-2.1-1-2.9-.9-.7.2-.7.6-.7.8.1.1.5.7.5,1.5,0,0,0,8.2,0,8.4-.2.3-.1.5,0,.6.2.3,2,.7,2.5.7.5,0,.6-.2.6-.8"/>
  <path class="st0" d="M108.8,14.9c0-.2,0-4.9,0-5.1.4-.5.2-.8,0-1-.8-.8-1.8-.9-2.6-.8-.6.2-.6.6-.6.7,0,.1.4.6.4,1.4,0,0,0,4.1,0,4.3-.2.3,0,.5,0,.6.2.2,1.7.7,2.2.7.4,0,.6-.2.5-.8"/>
  <path class="st0" d="M132.2,13.5c0,0,2.1.7,2.5,1,.4.3.9,1.5.5,1.7-.4.2-.9,0-1.1,0-.2,0-.6-.3-1-.6-.3-.3-1.1-1.4-1.2-1.6,0-.2.1-.5.2-.6"/>
  <path class="st0" d="M130.2,13.3c.1,0,.8.4,1,.6.6.6.4,1,0,1.1-.1,0-1.4.8-1.5.8-.1.1-1,.5-1.5.6,0,0-.6,0-.8,0-.2,0-.3-.2-.2-.3.1-.3,1.2-1.1,1.4-1.3.3-.3.8-.8,1-1.1,0-.2,0-.5.5-.4"/>
  <path class="st0" d="M132.8,4.1c0-.1,0-.3.2-.5,0,0,0,0,0,0,0,0,0,0,.2-.1.1,0,.2,0,.3,0,0,0,0,0,0,0,0,0,.1,0,.2,0,0,0,0,0,0,0,.1,0,0,0,0,0,.1,0-.2.4-.1.6,0,.4.5.9.7,1.3.3.3,1.3,1.5,1.9,2,.1,0,0,.2-.1.3,0,0-1,.1-1.1.2-.5,0-.9,0-1.1-.4,0,0-.3-.4-.9-1.3-.4-.8-.6-1.9-.6-1.9"/>
  <path class="st0" d="M125,15.7c-.5,0-2,0-2.7,0,0,0-.5.3-.8.3-.3,0-1,0-1.1-.4-.1-.4-.2-3.7-.4-4.1-.2-.4,0-.7.4-.8.4-.1,1.4.1,1.5.1.7-.1,3.3-.2,3.4-.2.6-.2.9-.4,1.7.3.1.1.6,1.3.6,1.5,0,.2-.3.4-.4.6,0,0-.2,2.4-.2,2.5,0,0-.2.5-.4.5-.2,0-.4.1-.7,0-.3,0-.6-.2-.8-.4M122.3,12.6c0,.1,0,1.2,0,1.4.6,0,1.9,0,2.5-.1,0-.6,0-.8,0-1.5,0,0-2.4.1-2.6.2"/>
  <path class="st0" d="M125.7,5.8c.2,0,.3.3.5.4.2.1.3.2.4.3.2.2.2.5.2.8-.1.1-.3.2-.5.3,0,0-.2,0-.3,0-.1,0-.3,0-.5,0-.3,0-1.2,0-1.5,0-.6,0-1.3,0-1.9.1-.3,0-.6.1-.9.1-.2,0-.4,0-.5-.1,0,0,0,0,0,0,0,0,0,0,0,0,0,0-.1-.2-.2-.3,0,0-.3-.6-.3-.7,0-.2.2-.5.4-.5,0,0,1,0,1.4,0,.6,0,1.2,0,1.9-.2.3,0,1.2,0,1.5,0,.2,0,.3,0,.5,0"/>
  <path class="st0" d="M125.7,8.2c.2,0,.3.3.5.4.1.1.3.2.4.3.2.2.2.5.2.8-.1.1-.3.2-.5.3,0,0-.2,0-.2,0-.1,0-.3,0-.4,0-.3,0-1.1,0-1.5,0-.6,0-1.3,0-1.9.1-.3,0-.6.1-.8.1-.2,0-.4,0-.5-.1,0,0,0,0,0,0,0,0,0,0,0,0,0,0-.1-.2-.2-.3,0,0-.3-.6-.3-.7,0-.2.2-.5.4-.5,0,0,1,0,1.3,0,.6,0,1.2,0,1.8-.1.3,0,1.2,0,1.4,0,.2,0,.3,0,.5,0"/>
  <path class="st0" d="M125.8,1.4c.2,0,.3.3.4.4.1.1.3.2.4.3.1.2.1.5.2.8-.1.1-.3.2-.5.2,0,0-.2,0-.2,0-.1,0-.3,0-.4,0-.3,0-1.1,0-1.5,0-.6,0-1.3,0-1.9,0-.3,0-.6,0-.8,0-.2,0-.4,0-.5-.2,0,0,0,0,0,0,0,0,0,0,0,0,0,0,0-.2-.2-.3,0,0-.3-.6-.2-.7,0-.2.2-.4.4-.5,0,0,1,0,1.3,0,.6,0,1.2,0,1.8,0,.3,0,1.2,0,1.4,0,.2,0,.3,0,.5,0"/>
  <path class="st0" d="M126.1,3.4c.3,0,.4.3.6.4.2.1.3.3.4.4.2.2.4.6.3.8-.1.2-.2.3-.5.4-.1,0-.3,0-.4,0-.2,0-.4,0-.6,0-.4,0-1.4,0-1.8,0-.8,0-1.6,0-2.3.1-.4,0-.8.1-1,.1-.3,0-.5,0-.6-.1,0,0,0,0,0,0,0,0,0,0-.1,0-.1,0-.1-.2-.3-.3,0,0-.4-.6-.3-.8,0-.2.2-.5.4-.5,0,0,1.2,0,1.7,0,.7,0,1.5,0,2.3-.2.4,0,1.4,0,1.8,0,.2,0,.3-.1.6,0"/>
  <path class="st0" d="M129.1,4.5c0,0,1.4,1,1.7,1.3.3.3.6,1.6.2,1.8-.3.2-.7,0-.8,0-.2-.1-.4-.4-.7-.7-.2-.3-.7-1.6-.7-1.8s.2-.5.2-.6"/>
  <path class="st0" d="M127.1,7.8s-.7,0-.5-.4c.1-.1,1.1-1,1.2-2.1.3-1.3.3-3.5.3-3.8,0-.2,0-.2-.1-.4,0-.2-.1-.3.1-.4.2,0,.7,0,1,0,.3,0,.6.2.7.5,0,0,0,.4,0,.5s-.2,2.2-.2,2.5c0,.7-.2,1.5-.4,2.1-.3.9-.9,1.3-1.1,1.3,0,0-.4,0-.5,0-.1,0-.3,0-.4,0"/>
  <path class="st0" d="M130.5,3.6c.2,0,.2.2.3.3.1,0,.2.2.2.3.1.2.2.5.2.6,0,.1-.1.2-.3.3,0,0-.2,0-.2,0,0,0-.2,0-.3,0-.2,0-.8,0-1.1,0-.4,0-.9,0-1.4.1-.2,0-.4.1-.6.1s-.3,0-.4-.1c0,0,0,0,0,0,0,0,0,0,0,0,0,0,0-.2-.2-.2,0,0-.2-.4-.2-.6,0-.1.1-.4.2-.4,0,0,.7,0,1,0,.4,0,.9,0,1.3-.2.2,0,.8,0,1,0,.1,0,.2-.1.3,0"/>
  <path class="st0" d="M130.5,1.8c.2,0,.2.2.3.3.1,0,.2.2.2.3.1.2.2.5.2.6,0,.1-.1.2-.3.3,0,0-.2,0-.2,0,0,0-.2,0-.3,0-.2,0-.8,0-1.1,0-.4,0-.9,0-1.4.1-.2,0-.4.1-.6.1s-.3,0-.4-.1c0,0,0,0,0,0,0,0,0,0,0,0,0,0,0-.2-.2-.2,0,0-.2-.4-.2-.6,0-.1.1-.4.2-.4,0,0,.7,0,1,0,.4,0,.9,0,1.3-.2.2,0,.8,0,1,0,.1,0,.2-.1.3,0"/>
  <path class="st0" d="M131.5,7.6s-.7,0-.5-.4c.1-.1,1.1-1,1.2-2.1.3-1.3.4-3.5.3-3.8,0-.2,0-.2-.1-.4,0-.2-.1-.3.1-.4.2,0,.7,0,1,0,.3,0,.6.2.7.5,0,0,0,.4,0,.5s-.2,2.2-.2,2.5c0,.7-.2,1.5-.4,2.1-.3.9-.9,1.3-1.1,1.3,0,0-.4,0-.5,0-.1,0-.3,0-.4,0"/>
  <path class="st0" d="M135.1,3.5c.2,0,.2.2.3.3.1,0,.2.2.2.3.1.2.2.5.2.6,0,.1-.1.2-.3.3,0,0-.2,0-.2,0,0,0-.2,0-.3,0-.2,0-.8,0-1.1,0-.4,0-.9,0-1.4,0-.2,0-.5,0-.6,0-.2,0-.3,0-.4-.1,0,0,0,0,0,0,0,0,0,0,0,0,0,0,0-.2-.1-.2,0,0-.2-.5-.2-.6,0-.1.1-.4.3-.4,0,0,.7,0,1,0,.4,0,.9,0,1.3-.1.2,0,.8,0,1,0,.1,0,.2-.1.3,0"/>
  <path class="st0" d="M135,1.6c.2,0,.2.2.3.3.1,0,.2.2.2.3.1.2.2.5.2.6,0,.1-.1.2-.3.3,0,0-.2,0-.2,0,0,0-.2,0-.3,0-.2,0-.8,0-1.1,0-.4,0-.9,0-1.4,0-.2,0-.4,0-.6,0-.2,0-.3,0-.4-.1,0,0,0,0,0,0,0,0,0,0,0,0,0,0,0-.2-.1-.2,0,0-.2-.5-.2-.6,0-.1.1-.4.3-.4,0,0,.7,0,1,0,.4,0,.9,0,1.3-.1.2,0,.8,0,1,0,.1,0,.2-.1.3,0"/>
  <path class="st0" d="M134.1,7.9c.4.3.6.9.4,1,0,0-.3.1-.4.1,0,0-.6,0-.7,0-.1,0-.6,0-2.2,0-1.5,0-2,0-2.1.1-.1,0-.2,0-.3,0,0,0-.4,0-.6-.4-.2-.3-.2-.7-.1-.7.1-.2.3-.1.4-.1,0,0,1,0,2.8-.1,1.5,0,1.9,0,1.9,0,0,0,.3,0,.3,0,.1,0,.5.2.5.2"/>
  <path class="st0" d="M134.2,9.5c.4.3.6.9.4,1,0,0-.3.1-.4.1,0,0-.6,0-.7,0-.1,0-.6,0-2.2,0-1.5,0-2,0-2.1.1-.1,0-.2,0-.3,0,0,0-.4,0-.6-.4-.2-.3-.2-.7-.1-.7.1-.2.3-.1.4-.1,0,0,1,0,2.8-.1,1.5,0,1.9,0,1.9,0,0,0,.3,0,.3,0,.1,0,.5.2.5.2"/>
  <path class="st0" d="M134.2,11.2c.4.3.6.9.4,1,0,0-.3.1-.4.1,0,0-.6,0-.7,0-.1,0-.6,0-2.2,0-1.5,0-2,0-2.1.1-.1,0-.2,0-.3,0,0,0-.4,0-.6-.4-.2-.3-.2-.7-.1-.7.1-.2.3-.1.4-.1,0,0,1,0,2.8-.1,1.5,0,1.9,0,1.9,0,0,0,.3,0,.3,0,.1,0,.5.2.5.2"/>
  <path class="st0" d="M134.2,12.8c.4.3.6.9.4,1,0,0-.3.1-.4.1,0,0-.6,0-.7,0-.1,0-.7,0-2.2,0-1.5,0-2,0-2.1.1-.1,0-.2,0-.3,0,0,0-.4,0-.6-.4-.2-.3-.2-.7-.1-.7.1-.2.3-.1.4-.1,0,0,1,0,2.8-.1,1.5,0,1.9,0,1.9,0,0,0,.3,0,.3,0,.1,0,.5.2.5.2"/>
  <path class="st0" d="M129.7,13.6c0-.1-.1-3.9-.1-4,0-.2,0-.8,0-1,.1-.3.2-.3.1-.5,0-.1-.4-.3-.6-.3,0,0-1.4-.3-1.7-.1-.4.1-.3.3-.2.4,0,0,.2.2.2.3,0,0,0,.2,0,.3,0,0,.2,4.5.2,4.6-.1.2,0,.3,0,.4.1.2.8.4,1.1.4.5,0,1,0,.9-.5"/>
  <path class="st0" d="M135.1,13.5c0-.1,0-3.9,0-4,0-.2,0-.8,0-1,.1-.3.3-.3.1-.5,0-.1-.4-.3-.6-.4,0,0-1.3-.3-1.7-.1-.4.1-.3.3-.3.4,0,0,.2.2.2.3,0,0,0,.2,0,.3,0,0,0,4.5,0,4.6-.1.2,0,.3,0,.4.1.2.2.4,1.2.4.3,0,.8,0,.8-.5"/>
  <path class="st0" d="M151.7,2.6c.3,0,.4.3.6.5.2.2.4.3.5.4.2.3.2.7.3,1.1-.2.2-.4.3-.7.3-.1,0-.2.1-.3.1-.2,0-.4,0-.6,0-.4,0-1.6,0-2,0-.9,0-1.8,0-2.6.1-.4,0-.9.2-1.2.1-.3,0-.6-.1-.7-.2,0,0,0,0,0-.1,0,0-.1,0-.1,0-.1-.1-.1-.3-.3-.4,0-.1-.4-.8-.4-1,0-.2.3-.6.5-.7,0,0,1.3,0,1.9,0,.8,0,1.7,0,2.5-.2.4,0,1.6,0,2,0,.3,0,.5,0,.6-.1"/>
  <path class="st0" d="M151.9,6.4c.3,0,.4.4.6.5.2.2.4.3.5.5.2.3.2.7.3,1.1-.2.2-.4.3-.7.4-.1,0-.2.1-.3.1-.2,0-.4,0-.6,0-.4,0-1.6,0-2,0-.9,0-1.7,0-2.6.2-.4,0-.9.2-1.2.2-.3,0-.6-.1-.7-.2,0,0,0,0,0-.1,0,0-.1,0-.1,0-.1-.1-.1-.3-.3-.4,0-.1-.4-.8-.3-1,0-.2.3-.6.5-.7,0,0,1.3,0,1.8,0,.8,0,1.7-.1,2.5-.2.4,0,1.6,0,2,0,.3,0,.4,0,.6-.1"/>
  <path class="st0" d="M141.7,12.2c0-.3,0-6.6,0-6.8,0-.4,0-1.4,0-1.6.1-.4.3-.6.1-.9,0-.2-.4-.5-.6-.6,0,0-1.3-.5-1.7-.2-.4.2-.3.5-.3.7,0,.1.2.3.2.5,0,.1,0,.3,0,.4,0,0,0,7.6,0,7.8-.1.3,0,.6,0,.8.1.3,1.3.9,1.6.9.3,0,.4-.2.4-1"/>
  <path class="st0" d="M139.2,13.8c0-.3,0-6.6,0-6.8,0-.4,0-1.4,0-1.6.1-.4.3-.6.1-.9,0-.2-.4-.5-.6-.6,0,0-1.3-.5-1.7-.2-.4.2-.3.5-.3.7,0,.1.2.3.2.5,0,.1,0,.3,0,.4,0,0,0,7.6,0,7.8-.1.3,0,.6,0,.8.1.3,1.3.9,1.6.9.3,0,.4-.2.4-1"/>
  <path class="st0" d="M144.3,13.8c0-.3,0-6.6,0-6.8,0-.4,0-1.4,0-1.6.1-.4.3-.6.1-.9,0-.2-.4-.5-.6-.6,0,0-1.3-.5-1.7-.2-.4.2-.3.5-.3.7,0,.1.2.3.2.5,0,.1,0,.3,0,.4,0,0,0,7.6,0,7.8-.1.3,0,.6,0,.8.1.3,1.3.9,1.6.9.3,0,.4-.2.4-1"/>
  <path class="st0" d="M149.8,7.8c0-.3,0-4.1,0-4.3,0-.4,0-1.4,0-1.7.2-.4.3-.6.1-.9,0-.2-.5-.5-.7-.6,0,0-1.6-.5-2-.2-.5.2-.3.6-.3.8,0,.1.2.3.2.5,0,.1,0,.3,0,.4,0,0,.1,5.1,0,5.4-.1.3,0,.6,0,.8.1.3,1.6.9,2,.9.4,0,.5-.3.4-1"/>
  <path class="st0" d="M142.7,11.7c.2,0,.3.3.4.5.1.1.2.3.3.5.1.3.2.7.2.9-.1.2-.2.3-.4.4,0,0-.2,0-.3,0-.1,0-.3,0-.4,0-.3,0-1.1,0-1.4,0-.6,0-1.2,0-1.8.1-.3,0-.6.1-.8.1-.2,0-.4,0-.5-.2,0,0,0,0,0-.1,0,0,0,0,0,0,0-.1,0-.3-.2-.4,0-.1-.3-.7-.2-.9,0-.2.2-.6.4-.6,0,0,.9,0,1.3,0,.6,0,1.2,0,1.8-.1.3,0,1.1,0,1.4,0,.2,0,.3-.2.5,0"/>
  <path class="st0" d="M154.4,15.2c.2,0,.1.6-.1.7,0,0-1.2.2-1.2.2-.1,0-.8.4-.9.5,0,0-.8.5-1.4.2-.3-.2-2.7-2.6-2.8-2.8-.8-.8-2.4-2.7-2.4-2.7-.6-.3-1-.7-.6-1.2,1.1-.6,1.9-.5,1.9-.5,0,0,1.2.7,1.4.9.2.2,3.2,3,3.4,3.2.8.5,2.6,1.5,2.8,1.6"/>
  <path class="st0" d="M146.1,16c-.9.5-1.7.6-2.1.5-.4,0-.7-.2-1-.3-.3-.1-.4-.3,0-.5.5-.3,1.2-.7,1.7-1.2,1.9-1.5,3.6-3.6,3.6-3.6,1.6-2,1.9-2.7,2-3,0-.2.2-.6.3-.7.2-.2.8-.3,1.1-.3,1.2.1,1.3.6,1.6,1.5.2.5,0,.6-.3.8-.5.3-.2.4-.8.8-.6.9-1.7,2.1-2.4,3-1.7,2.1-2.9,2.5-3.7,2.9"/>
  <path class="st0" d="M191.4,16.2c-.9.6-1.7.3-1.9.2-.5,0-2-1.6-2.3-1.9-.6-.4,0-.9.4-.8.6,0,2.4-.9,4.9-3.2,1-1,2.6-3.6,2.7-4.1-2.1.1-5.2.2-7.1.5-.3,0-.6.2-.9,0-.9-.6-1.8-2.1-1.9-2.4-.3-1.4,1.3-1.4,1.5-1.4.3,0,10.4-.3,10.6-.3.2,0,.5,0,.7,0,1,.5,1.5,2.7,1.3,3.3,0,.3-.4.3-.6.5-.1.2-1.8,3.8-3.2,5.4-1.4,2.1-3.3,3.6-4.4,4.2"/>
  <path class="st0" d="M158.1,6.1s-2.6.8-3.2.8c-.2,0-1.1,0-.8.8.2.8.6,1.9,1.2,2.6.2.2.8.2,1.1,0,0,0,1.7-.6,1.7-.6,0,0,0,2.7,0,3.1,0,2,1.1,3.1,3,3.4,1.5.2,5.8.2,6.1.1.3,0,.8-.2,1-.5.2-.3.9-1.5,1-2.3,0-.3-.2-.8-.6-.7-.4.1-5.5.2-5.8.2-.3,0-1.3.1-1.3-.7,0-.8,0-3.6,0-3.6l4-1.1s-.6,1.6-1.7,2.2c-.5.3-.4.7-.1,1,.3.4,1.4.8,1.8.8.5,0,.9-.1,1.2-.4.9-.8,2.1-3,2.6-4.1.3-.8.5-1.3.2-1.8-.4-.5-1.7-2-2.3-1.5-.2.2-5.7,1.6-5.7,1.6,0,0,0-1.8.1-2,0-.1.3-.8-.4-1.2-.5-.3-1.6-1-3-.7-.2,0-.6.2-.6.6,0,.4,0,.5.2,1.1.2.6.1,2.8.1,2.8"/>
  <path class="st0" d="M180.1,12.3c1.6-.5,3.8-3.4,4.6-4.3.2-.2.5-.3.5.2,0,.5.2,1.8.2,2.1,0,.7-.1.9-.3,1.1-.3.4-1.7,2.3-2.5,3.1-.6.6-2.9,2-3.2,2.2-.3.1-.6.2-.8,0,0,0-2-.9-2.1-.9-.3,0-.6-.5-.3-.9,0,0,.7-.9.6-4.4,0-.8,0-4.9,0-5.2s-.7-1.3-.8-1.4c0-.2,0-.4.2-.5.1,0,1.3-.6,1.7-.6.4,0,1.4,0,1.7.4.3.3,1,1.4.9,1.8,0,.4-.4.4-.4.8,0,.4,0,6.1,0,6.5"/>
  <path class="st0" d="M171.2,16.5c0,0-1.2.1-1.1-.4.2-.3,1.3-2.8,1.6-4.6.3-1.8.3-5.7.2-6.4,0-.5-.5-.9-.6-1.1,0,0,0-.2.6-.7.5-.2,1.4-.4,1.9-.2.7,0,1.4.2,1.5.8.1.2-.2,1.2-.2,1.3,0,.2,0,3.8,0,4.4-.1,1.6-.3,3.5-.9,4.6-.2.6-1,1.3-1.4,1.6-.1,0-.6.3-.8.4-.3.1-.7.2-1,.2"/>
  <path class="st1" d="M.9,12c.1,0,.3,0,.5-.1,0,0,.2-.2.3-.3.1-.3.2-.5.3-.8,0,0,0,0,0,.1.2.1.5.9.5,1,0,0,.3.3.3.3,0,0,.4,0,.4,0,0,0,.2-.1.3-.2.2-.2.3-.4.3-.6,0-.3,0-.7,0-.8,0,0,0-1.8,0-2.7.3,0,.7-.1.9-.1,0,.1.1.4.2.5,0,.1.3.4.6.5,0,0,.1,0,.2,0,.3.2.8.5.9.5.2,0,.3-.2.2-.7,0,0,0,0,0,0,0,0,.2,0,.3,0,0,1.7,0,3,0,3.1.2.4.6.5.7.5.4.1,1.5,0,2,0,.2,0,1.2,0,1.4-.4.2-.3,0-.6,0-.9,0-.2-.2-.9-.3-1-.2-.6-.3-.9-.4-1,.1,0,.1-.3.1-.7,0-.2,0-.9,0-1.1,0-.3,0-.8,0-1,.1-.2,0-.4,0-.7,0-.1-.2-.4-.3-.5,0,0-.9-.4-1.1-.2-.3.1-.2.4-.2.6,0,.1.1.2.1.4,0,0,0,.2,0,.3,0,0,0,.5,0,1,0,0,0,0-.2,0,0,0-.2,0-.4,0,0-.9,0-1.8,0-2.6.3,0,.5-.2.7-.3.4-.2,1.4-.5,1.4-.9,0-.3-.4-1.2-.9-1.3-.6,0-.9-.2-.9.3,0,.1,0,.3-.2.4,0-.1,0-.2,0-.3,0-.2.2-.5-.3-.8-.5-.3-1.4-.4-1.6-.1-.2.4.1.7.2,1,0,.2,0,.6,0,.9-.6.2-1.1.4-1.7.6-.3,0-.5.2-.6.3,0-.1,0-.3,0-.3,0,0-.5-.7-.6-.7,0,0-.2,0-.3,0,0,0,0,.1-.1.2,0,0-1.1,1.4-1.2,1.4-.1-.2-.2-.3-.3-.5.2-.1,1.5-1.5,1.6-1.7.2-.2.3-.2.3-.4,0-.3-.2-.5-.3-.6,0,0-.3-.2-.4-.3-.1,0-.4-.2-.5-.2-.2,0-.9.1-1,.2,0,0,0,.3,0,.3,0,0,.2.2.2.3,0,.1-.6,1.4-.8,1.5-.1,0-.2-.4-.8,0-.7.5-.6,1.2-.3,1.3.2,0,.8,1.1,1,1.4-.1.3-.5.3-.6.4-.2,0-.4,0-.6,0-.1,0-.3,0-.2.3,0,0,0,.3,0,.3,0,0,.3.9.4.9.2.2.4.2.5.2.2,0,.3-.1.4-.2,0,0,.6-.1.8-.1,0,.1,0,.7,0,1.1,0,.4,0,.9,0,1.2,0,.2,0,.4-.1.4,0,0-.3,0-.4,0,.2-.5.3-1,.3-1.6.2-.2,0-.5-.3-.5-.1,0-.7-.1-.9-.1-.1,0-.1.1,0,.3,0,.1,0,.3,0,.5,0,.3,0,.6-.1.9,0,.2-.1.5-.3.7-.2.3-.3.7-.6,1,0,0,0,0,0,0,0,0,.7,0,.8,0M9.5,8.5c.2.2.8.6,1.1.6,0,0,0,.2,0,.3,0,.2-.2,1.1-.2,1.3,0,0-1.3,0-1.4,0,0-.1,0-1,0-2.2.2,0,.4,0,.6,0M4.1,6c0,0,.9-1.1,1-1.1,0,0,0-.1,0-.2,0,0,0,0,.1.1.2.1,1.4.2,2.2.1,0,.8,0,1.6,0,2.5-.1,0-.2,0-.4,0,0-.3,0-.8,0-.9.1-.2,0-.4,0-.7,0-.1-.2-.4-.3-.5,0,0-.8-.4-1.1-.2-.3.1-.2.4-.2.6,0,.1.1.2.1.4,0,0,0,.2,0,.3,0,0,0,.3,0,.7-.2-.4-.4-.8-.5-.9-.2-.2-.4-.4-.5-.5-.1,0-.2,0-.3.2,0,.1,0,.4,0,.5-.3,0-.9.2-1.2.2.2-.2.6-.5.8-.8"/>
  <path class="st1" d="M4.7,8.6c0,0-.1-.1-.2-.1,0,0-.3,0-.3,0,0,0-.1.1-.1.2,0,.3.2,1.2.2,1.2,0,.5.2.9.4,1.5,0,.2.2.4.3.5.2,0,.3,0,.5,0,0,0,.3-.3.3-.4.2-.4,0-.9,0-1.2-.1-.3-.2-.5-.3-.8-.2-.3-.4-.5-.6-.7"/>
  <path class="st1" d="M12.8,57.6c.2-.2-.1-1.1-.7-1.7-.1,0-.6-.4-.7-.4,0,0-.3.1-.4.2,0,0-1.2,0-2.5,0,0-.5,0-1.2,0-1.9.2,0,.3,0,.4,0,.6,0,1.1,0,1.3,0,.1,0,.7,0,.7,0,.1,0,.4,0,.5-.2.2-.2,0-1.1-.4-1.5,0,0-.5-.3-.6-.3,0,0-.3.1-.4.1,0,0-.4,0-1,0-.1,0-.3,0-.5,0,0-.8,0-1.5,0-1.5.1-.1.2-.3.2-.4,1.1,0,2.1,0,2.1,0,.1,0,.7,0,.7,0,.1,0,.5,0,.5-.2.2-.2-.1-1-.6-1.5,0,0-.5-.4-.6-.3,0,0-.3.1-.4.1,0,0-2.2,0-3.8,0-1.8,0-3.8,0-3.8,0-.2,0-.4,0-.5.2,0,0,0,.7.2,1.2.3.6.7.6.8.6.1,0,.4,0,.5,0,0,0,1,0,2.3,0,0,.1,0,.3,0,.4,0,0,0,3.5,0,5.2-.4,0-.7,0-1.1,0,0-1,0-2.2,0-2.3.3-.4.1-.6,0-.7-.6-.6-1.3-.7-1.8-.6-.5.1-.4.4-.4.5,0,0,.3.5.3,1,0,0,0,1.2,0,2.1-.7,0-1.2,0-1.2,0-.2,0-.4,0-.5.2,0,0,0,.7.3,1.2.4.6.8.6.9.6.1,0,.5,0,.6,0,0,0,1.9,0,3.6,0,1.8,0,4.3,0,4.4,0,.1,0,.7,0,.8,0,.2,0,.5,0,.6-.2"/>
  <path class="st1" d="M59.4,8.3c.2.3.2,2.5.3,2.8,0,.3.5.3.7.3.2,0,.5-.2.5-.2.5,0,1.5,0,1.8,0,0,.2.3.2.5.3.2,0,.4,0,.5,0,.1,0,.2-.3.2-.3,0,0,.1-1.6.2-1.6,0-.1.2-.3.3-.4,0-.2-.3-.9-.4-1-.5-.5-.7-.4-1.2-.2,0,0-1.8,0-2.3.2,0,0-.7-.2-1,0-.3,0-.4.3-.2.5M60.9,9c.2,0,1.7-.2,1.8-.1,0,.4,0,.6,0,1-.4,0-1.2,0-1.7,0,0-.2,0-.9,0-1"/>
  <path class="st1" d="M59.8,7.3s0,0,0,0c0,0,0,0,0,0,0,0,.2,0,.3,0,.2,0,.4,0,.6,0,.4,0,.8,0,1.3,0,.2,0,.8,0,1,0,.1,0,.2,0,.3,0,0,0,.1,0,.2,0,.1,0,.2,0,.3-.2,0-.2,0-.4-.1-.5,0,0-.2-.1-.3-.2,0,0-.2-.2-.3-.3,0,0-.2,0-.3,0-.2,0-.7,0-1,0-.4,0-.8,0-1.2,0-.3,0-.9,0-.9,0-.1,0-.2.2-.2.3,0,.1.2.4.2.5,0,0,0,.1.1.2"/>
  <path class="st1" d="M59.3,4.2s0,0,0,0c0,0,0,0,0,0,0,0,.2,0,.4,0,.2,0,.4,0,.7,0,.5,0,1,0,1.6,0,.3,0,1,0,1.2,0,.1,0,.3,0,.4,0,0,0,.2,0,.2,0,0,0,0,0,0,0,0,0,0,0,0,0,0,0,.1,0,.2,0s.2,0,.3,0c0,.5-.5,1-.7,1.3,0-.2,0-.3-.2-.5,0,0-.2-.1-.3-.2-.1,0-.2-.2-.3-.2,0,0-.2,0-.3,0-.2,0-.8,0-1,0-.4,0-.9,0-1.3.1-.3,0-.9,0-.9,0-.1,0-.2.2-.2.3,0,.1.2.4.2.5,0,0,0,.1.1.2,0,0,0,0,0,0,0,0,0,0,0,0,0,0,.2,0,.4,0,.2,0,.4,0,.6,0,.4,0,.9,0,1.3,0,.2,0,.8,0,1,0,.1,0,.2,0,.3,0,0,0,.1,0,.2,0,0,0,.1,0,.2,0,0,0,0,0,0,0-.2.2.3.2.3.2,0,0,0,0,.1,0,0,0,0,.1,0,.2,0,0,.1.1.1.2,0,0,0,.1,0,.2,0,0,.2,3,.1,3.1,0,.1,0,.2,0,.3,0,.1.5.3.7.3.1,0,.3,0,.4,0-.1.2-.3.3-.4.4-.1.1-.9.7-1,.9,0,0,0,.2.2.2.1,0,.5,0,.5,0,.3,0,.9-.3,1-.4,0,0,.9-.5,1-.5.2,0,.4-.3,0-.7,0,0,0,0,0,0,.2,0,.3,0,.4,0,0,0,0,0,0,0,0,.1.6.9.8,1,.2.2.5.3.7.4.2,0,.5.1.7,0,.3-.1,0-.9-.4-1.1-.1,0-.5-.3-.9-.4h0c.1,0,.3,0,.6,0,.2,0,.5,0,.5-.3,0,0,0-2.6,0-2.7,0-.1,0-.5,0-.6,0-.2.2-.2,0-.4,0,0-.3-.2-.4-.2,0,0-.9-.2-1.1,0-.2,0-.2.1-.2.2-.2,0-.5,0-1,0-.5,0-1,0-1.3,0,0,0-.1,0-.2,0,0,0-.3,0-.6,0,.2-.1.4-.4.5-.8,0-.1,0-.2,0-.3,0,.2.2.4.2.5.1.2.3.4.4.5.1,0,.3.2.6,0,0,0,0,0,0,0,0,0,.3,0,.3,0,0,0,.2,0,.3,0,0,0,.3,0,.3,0,.2,0,.6-.3.8-.9.3.4.4.6.4.6.2.2.4.3.7.3,0,0,.7-.1.7-.1,0,0,.2-.1,0-.2-.4-.3-1.1-1.1-1.3-1.3,0,0,0,0-.1-.2.2,0,.3,0,.4,0,0,0,.2,0,.2,0,0,0,0,0,.1,0,0,0,.1-.1.2-.2,0-.1,0-.3-.1-.4,0,0,0-.2-.2-.2,0,0-.1-.2-.2-.2,0,0-.1,0-.2,0,0,0-.3,0-.5,0,0,0,0-.2,0-.2.2,0,.5,0,.6,0,0,0,.2,0,.2,0,0,0,0,0,.1,0,0,0,.1-.1.2-.2,0-.1,0-.3-.1-.4,0,0,0-.2-.2-.2,0,0-.1-.2-.2-.2,0,0-.1,0-.2,0,0,0-.2,0-.3,0,0,0,0,0,0,0,0,0,0-.3,0-.3,0-.2-.2-.3-.4-.3-.2,0-.5,0-.7,0-.2,0-.1.2,0,.3,0,.1,0,0,0,.2,0,0,0,.2,0,.3,0,0-.2,0-.2,0-.2,0-.6,0-.7,0,0,0-.2.2-.2.3,0,0,0,0,0,0,0,0,0-.1-.2-.2,0,0-.1-.2-.2-.2,0,0-.1,0-.2,0,0,0-.2,0-.3,0,0,0,0,0,0,0,0,0,0-.3,0-.3,0-.2-.2-.3-.5-.4-.2,0-.5,0-.7,0-.2,0-.1.2,0,.3,0,.1,0,0,0,.2,0,0,0,.2,0,.4,0,0-.2,0-.2,0-.2,0-.6,0-.7,0,0,0,0,0,0,0,0,0,0,0,0-.1,0,0-.2-.1-.2-.2,0,0-.1-.2-.3-.3,0,0-.2,0-.3,0-.2,0-.7,0-1,0-.4,0-.8,0-1.2,0-.3,0-.9,0-.9,0-.1,0-.2.2-.3.3,0,.1.1.4.1.5,0,0,0,.1.1.2,0,0,0,0,0,0,0,0,0,0,0,0,0,0,.2.1.3.1.2,0,.4,0,.6,0,.4,0,.8,0,1.3,0,.2,0,.8,0,1,0,.1,0,.2,0,.3,0,0,0,.1,0,.2,0,.1,0,.2,0,.3-.1,0,0,0,.1,0,.2,0,0,0,.1.1.2,0,0,0,0,0,0,0,0,0,0,0,0,0,0,.1,0,.2,0s.3,0,.4,0c0,0,0,0,0,0,0,0,0,.1,0,.2,0,0-.1,0-.2,0-.2,0-.5,0-.6,0,0,0,0,0-.1-.1-.1,0-.2-.2-.4-.3-.2,0-.2,0-.4,0-.2,0-.9,0-1.2,0-.5,0-1,0-1.5.1-.3,0-1.1,0-1.1,0-.1,0-.3.2-.3.4,0,.1.2.5.2.5,0,0,.1.1.2.2M68.1,8c-.2,0-.5,0-1.1,0-.5,0-.9,0-1.1,0,0-.1,0-.2,0-.3.2,0,.6,0,1.1,0,.6,0,1,0,1.2,0,0,.1,0,.2,0,.4M65.8,9.2c0,0,0-.2,0-.3.2,0,.6,0,1.1,0,.6,0,.9,0,1.2,0,0,.1,0,.2,0,.3-.2,0-.5,0-1.1,0-.5,0-.8,0-1.1,0M68.1,6.6c0,0,0,.2,0,.3-.2,0-.5,0-1.2,0-.5,0-.9,0-1.2,0,0,0,0-.2,0-.3.2,0,.6,0,1.1,0,.6,0,1,0,1.2,0ZM66.8,5.4c0-.3-.1-.8-.3-.9,0,0-.3-.3-.5-.4.1,0,.2,0,.3,0,0,0,.2,0,.2,0,0,0,0,0,.1,0,0,0,.1-.1.2-.2,0,0,0-.1,0-.2,0,0,0,.2,0,.2,0,0,0,.1,0,.2,0,0,0,0,0,0,0,0,0,0,0,0,0,0,.1,0,.2,0,0,0,.1,0,.2,0-.1.6-.5,1.1-.7,1.3M66.3,2.8c0,0,.2,0,.2,0,0,0,0,0,.1,0,0,0,.1-.1.2-.2,0,0,0,0,0,0,0,0,0,.1,0,.2,0,0,0,0,0,0,0,0,0,0,0,0,0,0,.1,0,.2,0,.1,0,.3,0,.4,0,0,0,0,0,0,0,0,0,0,.2,0,.3,0,0,0,0,0,0-.2,0-.6,0-.7,0,0,0-.2.2-.2.3,0,0,0,.1,0,.2,0,0,0-.1,0-.2,0,0,0-.1-.2-.2,0,0-.1-.2-.2-.2,0,0-.1,0-.2,0,0,0-.3,0-.4,0,0,0,0-.1,0-.2.2,0,.5,0,.6,0"/>
  <path class="st1" d="M70.1,57c-.1,0-1.3-.7-1.9-1.1,0,0-.5-.4-.9-.8.4-.5.9-1,1.2-1.5.4-.3.2-.4.5-.5.2-.1.3-.2.2-.5,0,0,0,0,0,0,0-.3,0-.5-.2-.8,0-.1-.2-.2-.4-.3-.1-.1-.2-.3-.4-.4-.1.1-.2,0-.4,0-.2,0-.6,0-.9,0,0-.3,0-.7,0-1,.4,0,1,0,1.2,0,.1,0,.3,0,.4,0,0,0,.1,0,.2,0,.2,0,.3-.1.5-.2,0-.2,0-.5-.2-.7,0-.1-.2-.2-.4-.3-.1-.1-.2-.3-.4-.3-.1.1-.3,0-.4,0-.2,0-.5,0-.8,0,0-.3,0-.5,0-.6.1-.3.2-.4.1-.6,0-.1-.4-.3-.5-.4,0,0-1.1-.3-1.3-.1-.4.1-.2.4-.2.5,0,0,.2.2.2.3,0,0,0,.2,0,.3,0,0,0,.3,0,.7-.2,0-.4,0-.5,0-.4,0-1.2,0-1.3,0-.2,0-.3.3-.3.5,0,0,0,.3.2.5,0-.1-.2-.2-.3-.3,0,0-.9-.3-1.1-.2-.3.1-.2.4-.2.5,0,0,.1.2.1.3,0,0,0,.2,0,.3,0,0,0,2.8,0,4.3,0,0,0,0,0,0,0,0-.2,0-.3,0,0-1,0-4.2,0-4.3,0-.2,0-.9,0-1.1,0-.3.2-.4,0-.6,0-.1-.3-.3-.4-.4,0,0-.9-.3-1.1-.2-.3.1-.2.4-.2.5,0,0,.1.2.1.3,0,0,0,.2,0,.3,0,0,0,5.1,0,5.2,0,0,0,.2,0,.3,0,0-.2,0-.3,0,0-1.3,0-3.3,0-3.4,0-.2,0-.9,0-1.1,0-.3.2-.4,0-.6,0-.1-.3-.3-.4-.4,0,0-.9-.3-1.1-.2-.3.1-.2.4-.2.5,0,0,.1.2.1.3,0,0,0,.2,0,.3,0,0,0,5.1,0,5.3,0,.2,0,.4,0,.5,0,.2.9.6,1.1.6.2,0,.2-.1.2-.4.4,0,.8,0,1.2,0,.2,0,.7,0,.9,0,.1.2.9.6,1.1.6.2,0,.3-.2.3-.7,0-.2,0-4.5,0-4.6,0-.2,0-.9,0-1.1,0-.3.2-.3.1-.5,0,0,.1.2.2.2,0,0,0,0,0,0,0,0,0,0,0,0,0,0,.3.1.5.1.2,0,.5,0,.8,0,.1,0,.2,0,.3,0,0,.4,0,.8,0,1-.1,0-.3,0-.4,0-.4,0-1.2,0-1.2,0-.2,0-.3.3-.3.5,0,.2.2.6.2.7,0,0,.1.2.2.3,0,0,0,0,0,0,0,0,0,0,0,0,0,0,.3.1.5.1.2,0,.5,0,.8-.1.6,0,1.1,0,1.7-.1-.2.3-.4.6-.8,1,0,0-.1-.1-.2-.1-.2-.1-.9-.6-.9-.6,0,0-.6,0-1.3.4-.3.4,0,.6.4.8,0,0,.4.4.8.9-.4.4-.9.9-1.4,1.3-.4.3-.8.6-1.2.8-.2.1-.1.2,0,.3.2,0,.4.2.7.2.2,0,.8,0,1.4-.4.4-.2.9-.4,1.6-1,.5.5,1.4,1.4,1.6,1.5.4.2,1,0,.9-.1,0,0,.6-.3.6-.3,0,0,.8-.2.8-.2.1,0,.2-.4,0-.5"/>
  <path class="st1" d="M36,58.6c-3.9,0-7.7-.8-11.3-2.3-3.5-1.5-6.6-3.5-9.2-6.2-2.7-2.7-4.8-5.8-6.2-9.2-1.5-3.6-2.3-7.4-2.3-11.3s.8-7.7,2.3-11.3c1.5-3.5,3.6-6.6,6.2-9.2,2.7-2.7,5.8-4.8,9.2-6.2,3.6-1.5,7.4-2.3,11.3-2.3s7.7.8,11.3,2.3c3.5,1.5,6.6,3.5,9.2,6.2,2.7,2.7,4.8,5.8,6.2,9.2,1.5,3.6,2.3,7.4,2.3,11.3s-.8,7.7-2.3,11.3c-1.5,3.5-3.6,6.6-6.2,9.2-2.7,2.7-5.8,4.8-9.2,6.2-3.6,1.5-7.4,2.3-11.3,2.3ZM36,7.2c-6,0-11.6,2.3-15.8,6.5-4.2,4.2-6.5,9.8-6.5,15.8s2.3,11.6,6.5,15.8,9.8,6.5,15.8,6.5,11.6-2.3,15.8-6.5c4.2-4.2,6.5-9.8,6.5-15.8s-2.3-11.6-6.5-15.8c-4.2-4.2-9.8-6.5-15.8-6.5Z"/>
  <path class="st0" d="M21.6,47.9c-1,.5-4.9-5.1-4-6.7,1.3-1.7,2.7-.6,3.6-.6,14-.9,24.1-.7,29.5-.7.2-.2,1.4,0,2.4.5,2.1,1.7,3.2,3.6,3.5,5,.2,1-.8,1.5-1.2,1.6-.7.3-2.9,0-3.1,0-9.4-.3-17.7-.1-30.7.9Z"/>
  <path class="st0" d="M26,36.1c-1.7-.2-4.4-4.7-3.6-6.3,1.2-1.6,2.3-.6,3.1-.7,11.8-.8,16.8-.7,21.5-.8.2-.2,1.2,0,2.1.4,1.9,1.5,2.9,3.3,3.2,4.6.2,1-.6,1.4-1,1.6-.6.3-2.5,0-2.8,0-8.1.2-11.4.3-22.6,1.1"/>
  <path class="st0" d="M24.9,25.3c-1,.5-4.7-4.9-3.9-6.5,1.2-1.7,2.5-.6,3.4-.7,12.6-.8,21.8-.6,22.3-.9,1.3-.5,2-.1,3,.5,2,1.6,3.1,3.4,3.4,4.8.2,1-.7,1.5-1.1,1.6-.7.3-2.7,0-3,0-8.7.2-12.3.3-24.2,1.1"/>
  <path class="st0" d="M41.3,39.5c0-1.7-.2-24.2.7-26,.6-1.3.9-2.4-.3-3.5-1.2-1.1-4.1-2.5-7.3-2-1.2,0-2,.5-2.4,1.4-.4.9,1,2.3,1,2.9,0,.5,0,27-.3,29.5-.3,1.6-.9,1.1-.2,2.4.8,1.5,4.8,2.6,6.5,2.6.7,0,2-.4,2.1-1.8.1-2.1.3-3.5.2-5.5"/>
  <path class="st0" d="M24.5,26.2c-3.6,5.5-7.6,6.8-7.8,6.6-.3,0-1-.4-1.2-.7,1.2-2,3.3-6,3.9-8.2.6-2.2,1.4-4,1.8-8.7-.1-.7-1.1-1.1-1.4-1.8-.4-.6-.3-1.6.2-2,.9-.7,2.9-.7,3.8-.7,3.3.3,4.9,1.6,5.8,2.5,1.3,1.4.7,2.8-.2,3.7-.3.3-.7,2.9-5,9.2"/>
  <path class="st0" d="M191.4,32.7s-.1,0-.2,0c-.1,0-.6-1-.5-1.3.1-.3.3,0,.4,0,0,0,4.3-.1,4.4-.2,0,0,.1-.1.3,0,.3.3.5.8.5,1.1,0,.2,0,.3-.1.3,0,0-.2,0-.2,0,0,0-4,0-4.2.1-.1,0-.1,0-.3,0Z"/>
  <path class="st0" d="M191.6,37.2s-.1,0-.2,0c-.1,0-.6-1-.5-1.3.1-.3.3,0,.4,0,0,0,3.9-.2,4-.2,0,0,.1-.1.2,0,.2.3.4.8.5,1.1,0,.2,0,.3-.1.3,0,0-.2,0-.2,0,0,0-3.7.1-3.8.1-.1,0-.1,0-.2,0"/>
  <path class="st0" d="M191.7,34.9s-.1,0-.2,0c-.1,0-.6-1-.5-1.3.1-.3.3,0,.4,0,0,0,4.1-.1,4.3-.2,0,0,.1-.1.2,0,.3.3.4.8.5,1.1,0,.2,0,.3-.1.3,0,0-.2,0-.2,0,0,0-3.9,0-4.1.1-.1,0-.1,0-.3,0Z"/>
  <path class="st0" d="M190.9,37.3c-.6-.2-.7-.3-.8-.5,0-.6-.3-4.6-.3-4.7-.2-.2-.2-.1-.3-.4,0,0,.4-.3.4-.3,0,0,.6,0,.7,0,0,0,.6.4.7.4.2.2.5.8.2,1.1,0,.4.2,3.3.2,3.7,0,.1,0,.5,0,.6,0,0,0,.1,0,.2,0,0-.5.1-.8,0"/>
  <path class="st0" d="M193.5,36.8c-.5,0-.6-.2-.7-.3,0-.3-.1-4-.1-4.1,0,0-.3-.3-.2-.4,0-.1.2-.2.4-.2.2,0,1.2,0,1.4.2.2.2.2.3,0,.5-.2.3,0,3.6,0,3.8,0,0,0,.3,0,.3,0,0,0,0,0,.1,0,0-.5,0-.7,0"/>
  <path class="st0" d="M196,37.3c-.5-.2-.6-.4-.7-.6,0-.6.3-4.7.3-4.8-.1-.2-.2-.1-.2-.5,0,0,.4-.3.5-.3,0,0,.6,0,.7,0,0,0,.6.5.6.6.2.2.4.9,0,1.2-.1.4-.2,3.4-.3,3.7,0,.1,0,.5,0,.6,0,0,0,.1-.1.2,0,0-.5,0-.7,0"/>
  <path class="st0" d="M197,24c.8.8.8,1.1.7,1.2,0,.1-.2.3-.5.3,0,0-1.3,0-1.5,0-.4,0-.9,0-1.3,0-.2,0-.4,0-.6,0-.2,0-.3,0-.4-.1,0,0,0,0,0,0,0,0,0,0,0,0,0,0,0-.2-.2-.2,0,0-.2-.5-.2-.6,0-.1.1-.4.2-.4,0,0,.7,0,1,0,.4,0,.9,0,1.3,0,.2,0,.9,0,1.1,0,.1,0,.3-.1.5,0"/>
  <path class="st0" d="M192.7,24.2c.8.8.8,1.1.7,1.2,0,.1-.2.3-.5.3,0,0-1.3,0-1.5,0-.4,0-.9,0-1.3,0-.2,0-.4,0-.6,0-.2,0-.3,0-.4-.1,0,0,0,0,0,0,0,0,0,0,0,0,0,0,0-.2-.2-.2,0,0-.2-.5-.2-.6,0-.1.1-.4.2-.4,0,0,.7,0,1,0,.4,0,.9,0,1.3,0,.2,0,.9,0,1.1,0,.1,0,.3-.1.5,0"/>
  <path class="st0" d="M196.1,25.4c0,.5,1.4,2.9,1.5,3.1.2.4.6.9.9,1.3,0,.1-.1.1-.2.2-.2,0-1,0-1.1,0-.2,0-.4,0-.5-.4,0-.1-1-1.6-1.6-3.7,0,0,0-.2,0-.2,0,0-.2,0-.2,0,0,0,0,0,0,0,0,0,.3-.3.4-.4.4,0,.4.2.5.2.1,0,.3,0,.4.1"/>
  <path class="st0" d="M194.5,29.9c0-.1.1,0,.2-.7,0-.6-.1-5.3,0-6,0,0,0-.2,0-.3,0-.1-.1-.3-.2-.3,0-.1-.1-.4.2-.5.2-.2.7,0,1.2.1.1,0,.4.2.4.4,0,.2,0,.3,0,.5,0,.2,0,.9,0,1.1,0,.1,0,.2,0,.4,0,.2,0,4.8,0,5,0,.2,0,.7,0,.8,0,.1,0,.3-.2.3-.1,0-.3,0-.4,0,0,0-.2,0-.3-.2,0,0-.4-.2-.3-.3,0,0-.2,0-.2-.5"/>
  <path class="st0" d="M190.3,29.9c0-.1.1,0,.2-.7,0-.6-.1-5.3,0-6,0,0,0-.2,0-.3,0-.1,0-.3-.2-.3,0-.1-.1-.4.2-.5.2-.2.7,0,1.2.1.1,0,.4.2.4.4,0,.2,0,.3,0,.5,0,.2,0,.9,0,1.1,0,.1,0,.2,0,.4,0,.2,0,4.8,0,5,0,.2,0,.7,0,.8,0,.1,0,.3-.2.3-.1,0-.3,0-.4,0,0,0-.2,0-.3-.2,0,0-.4-.2-.3-.3,0,0-.2,0-.2-.5"/>
  <path class="st0" d="M192.5,29.7c-.1,0-.3,0,0-.3.3-.3.9-1.2,1.1-1.5,0-.2.9-1.8.8-2.4,0-.2,0-.2,0-.3,0,0-.1-.1.1-.3.2,0,.4.5.6.6.3,0,.5,0,.6.3,0,0,0,.2,0,.3,0,0-.2.8-.2,1-.1.6-.3.8-.5,1.3,0,.2-.7.9-.9,1.1-.1.1-.3.2-.5.2,0,0-.8,0-.9,0"/>
  <path class="st0" d="M188.4,29.4c.3-.8,1.4-1.6,1.9-3.8,0-.2,1.8.2,1.4.7-.1.2-.3.4-.4.7-.1.2-.6,1.2-.7,1.3-.7.8-1.1,1.1-1.3,1.2-.1,0-.9.3-.9,0"/>
  <path class="st0" d="M191.7,25.5c0,0,1.4,1.5,1.6,1.8.2.3,0,1.1-.3,1.2-.3.1-.5,0-.6-.2-.1-.1-.3-.3-.4-.6-.1-.3-.8-1.3-.8-1.4,0-.2.6-.8.7-.8"/>
  <path class="st0" d="M191.4,50.5c.2-.4.5-1,.7-1.6,0,0,0-.2,0-.2,0-.2,0-.2,0-.4,0-.2.2-.2.6-.2.1,0,.4,0,.5.2.4.4.5.8.2,1,0,.1-.2.2-.3.3,0,.1-.3.5-.4.6,0,0-.5.3-.5.3,0,0-.6.2-.6,0"/>
  <path class="st0" d="M193.5,48.1c.3-.1.7.3.9.5.5.4.2.9,0,1.1,0,.1-.3.7-.3.7,0,.1-.2.5-.6.8,0,0-.7.2-.8.2-.1,0-.3,0-.3-.2,0-.3.6-1.4.7-1.6.1-.4.3-.8.2-1.1-.1-.1,0-.3.1-.3"/>
  <path class="st0" d="M191.8,50.4s.7,0,.8,0c.1,0,.2,0,.3.2.2.3.3.8.3.9,0,.1-.1.2-.2.2,0,0-1.1,0-1.1,0,0,0,0,0,0,.1,0,0,.7.4.7.4.5.3.7.4.7.6,0,.5-.1.9-.2.9,0,0-.3.2-.4.1,0,0-.7-.7-.9-.7,0,0,0,.8,0,1.2,0,0,0,.6,0,.8,0,0,0,.2-.2.3-.1,0-.2,0-.3,0-.1,0-.4-.1-.6-.3s-.3-.2-.2-.5c0-.1,0-.3,0-.6,0,0-.3.5-.5.7,0,0-.1,0-.3,0,0,0-.5.1-.8.2-.2,0-.3,0-.2-.2.3-.3,1.1-1.7,1.6-3-.2,0-.4,0-.5,0,0,0-.2.1-.3.1-.2,0-.2,0-.3,0-.1-.1-.3-.3-.4-.4-.1-.2-.3-.6-.2-.7,0-.2.3-.2.4-.2,0,0,.6,0,.7,0,.3,0,.7,0,.7,0,0,0,0-2.1,0-2.6,0-.3-.1-.4,0-.5,0-.2.2-.3.3-.3.2,0,.9.1,1.2.4.1.1.1.3.1.4,0,.1-.1,0-.1.3,0,.5,0,2.3,0,2.3"/>
  <path class="st0" d="M189.6,48.2c0,0,.9.9,1,1.2.1.3,0,1.1-.3,1.2-.3,0-.5-.1-.6-.3,0-.1-.3-.3-.3-.6,0-.3-.1-1.1-.1-1.3,0-.1.2-.3.3-.3Z"/>
  <path class="st0" d="M196.1,50.3c.1,0,0,0,.2-.1.1,0,.4,0,.6.1.2.2.5.5.5.8,0,.3,0,.6-.1.7,0,.1,0,.3,0,.4,0,1.6-.5,3.2-.5,3.1,0,.1-.3.4-.4.4,0,0-.5.1-.6,0-.1-.2-.5-.9-.6-1.1-.1-.2-.2-.3,0-.4.2,0,.5.2.6.1.3-.4.4-2.2.4-2.5-.4,0-.6,0-.6,0,0,0-.3,2.1-.6,2.5,0,0-.3.7-.6,1-.3.2-1.1,0-1.1,0,0,0-.1-.2,0-.3.8-1.2,1-3.1,1-3.1,0,0-.4,0-.5,0-.2,0-.4-.9-.4-1.4,0-.2.5-.2.8-.1.3,0,2.4-.1,2.5-.2"/>
  <path class="st0" d="M194.4,48.6c-.4,0-.8-.8-.8-.8-.1-.5,0-.5.4-.5.3,0,1.6,0,1.7,0,.1,0,.8-.1,1,.5,1.1,3.2,2.2,3,1.8,3.3-.3.3-.8.3-1,.3-.2,0-.6,0-1-.4-.4-.5-1-2.5-1-2.5,0,0-.8.1-1.2,0"/>
  <path class="st0" d="M189.7,44.1c-.3-.1-.7-.7-.5-1,.2-.2.4,0,.6,0,3.1-.1,4.9-.2,6.7-.2,0,0,.4-.2.7,0,.3.2.5.5.5.7,0,.1-.1.2-.2.2-.1,0-.5,0-.5,0-.7,0-3.9,0-6.7.2-.1,0-.3,0-.5,0"/>
  <path class="st0" d="M192.4,45v.6s1.1-.2,1.4-.3c.3-.1.3.1.1.4-.2.3-.4.4-.5.5-.2,0-2.1.8-2.2.8-.1,0-.4,0-.6,0-.2,0-.5-.4-.5-.7,0-.2.3-.3.5-.3.2,0,.6-.1.6-.1,0,0,0-1.4,0-1.6,0-.2-.1-.3-.3-.4-.1,0,.1-.3.3-.4.6-.2.8,0,1.1.2.3.1.1.4,0,.5s0,.4,0,.4v.6Z"/>
  <path class="st0" d="M194.3,43.6c0,0,0,0,0-.1,0-.1,0-.5,0-.6.1-.1.1-.2,0-.4,0,0-.2-.2-.3-.3,0,0-.8-.2-1.1-.1-.3,0-.2.2-.2.3,0,0,.1.1.1.2,0,0,0,.1,0,.2v.9s1.1,0,1.1,0v-.2c.1,0,.2,0,.2,0Z"/>
  <path class="st0" d="M189.9,38.2c0,0,.6,0,.8.1.5.3.2.6.1.7,0,0-.4.7-.4.7,0,0-.4.4-.7.6,0,0-.3.1-.4.1-.1,0-.3,0-.2-.1,0-.2.4-.8.5-1,0-.2.3-.4.2-.6,0,0-.3-.4.1-.4Z"/>
  <path class="st0" d="M197.7,46c0,0,0,.2,0,.2,0,0-.7.1-.7.1,0,0-.7.2-.8.2,0,0-.5.2-.8,0-.2,0-1.4-1-1.5-1-.2-.1-1.4-.9-1.5-.9-.1-.1-.4-.2-.4-.4,0,0,.9-.6.9-.6,0,0,.9.6,1,.6.1,0,1.2.6,1.3.7.4.2,2.3.9,2.4,1"/>
  <path class="st0" d="M196.2,43.2s-.8-.5-.8-.6c-.2-.2-.9-.6-1-.7,0,0,0,0,0,0,0,0,1.2,0,1.3,0,0-.3,0-2.1,0-2.5,0-.3,0-.8,0-.9,0,0,0-.2-.1-.2,0-.2.2-.2.2-.2.5,0,1.2.3,1.2.3.2.1.2.5.1.6,0,0,0,1,0,1.6,0,.7,0,2.2,0,2.3,0,0-.2.3-.3.3,0,0-.5,0-.6,0"/>
  <path class="st0" d="M195.4,41c0-.1,0-.6,0-.7,0-.2,0-.6,0-.8.1-.2,0-.3,0-.5,0-.1-.2-.3-.3-.4,0,0-.8-.3-1-.1-.3.1-.2.3-.2.4,0,0,.1.2.1.3,0,0,0,.2,0,.3,0,0,0,1.2,0,1.3,0,.2,0,.3,0,.4,0,.2.7.4.9.4.3,0,.4-.2.4-.7Z"/>
  <path class="st0" d="M193.1,38.7c.1,0,.2.1.3.2,0,0,.2.1.2.2,0,.1,0,.3.1.4,0,0-.2,0-.3.1,0,0-.1,0-.1,0,0,0-.2,0-.3,0-.2,0-.7,0-.8,0-.4,0-.7,0-1.1,0-.2,0-.4,0-.5,0-.1,0-.2,0-.3,0,0,0,0,0,0,0,0,0,0,0,0,0,0,0,0-.1-.1-.2,0,0-.2-.3-.1-.4,0,0,.1-.2.2-.3,0,0,.6,0,.8,0,.3,0,.7,0,1.1,0,.2,0,.7,0,.8,0,.1,0,.2,0,.3,0"/>
  <path class="st0" d="M193,41c.1,0,.2.1.3.2,0,0,.2,0,.2.2,0,.1,0,.3.1.4,0,0-.2,0-.3.1,0,0-.1,0-.1,0,0,0-.2,0-.3,0-.2,0-.6,0-.8,0-.4,0-.7,0-1.1,0-.2,0-.3,0-.5,0-.1,0-.2,0-.3,0,0,0,0,0,0,0,0,0,0,0,0,0,0,0,0-.1-.1-.1,0,0-.2-.3-.1-.4,0,0,.1-.2.2-.2,0,0,.5,0,.8,0,.3,0,.7,0,1,0,.2,0,.7,0,.8,0,.1,0,.2,0,.3,0"/>
  <path class="st0" d="M193.6,39.8c.2,0,.2.1.4.2.1,0,.2.1.3.2.1.1,0,.3,0,.4-.1,0-.3.1-.5.1,0,0-.2,0-.2,0-.1,0-.2,0-.4,0-.3,0-1,0-1.3,0-.5,0-1.1,0-1.6,0-.3,0-.6,0-.8,0-.2,0-.4,0-.4,0,0,0,0,0,0,0,0,0,0,0,0,0,0,0,0-.1-.1-.2,0,0-.2-.3-.1-.4,0,0,.2-.3.4-.3,0,0,.8,0,1.2,0,.5,0,1.1,0,1.6,0,.3,0,1,0,1.3,0,.2,0,.3,0,.4,0"/>
  <path class="st0" d="M190.8,42.8c0,0,0-.9,0-1,0,0,0-.3,0-.4.1,0,0-.1,0-.2,0,0-.2-.1-.3-.2,0,0-.7-.1-.9,0-.3,0-.1.3-.1.3,0,0,0,.1,0,.2,0,0,0,0,0,.1,0,0,0,.6,0,1,0,.1,0,.2.1.2.2,0,.5.2.8.2,0,0,.1,0,.2-.2Z"/>
  <path class="st0" d="M192.8,42.5c-.3-.2-.2-.2-.2-.3,0-.2.2-.8.2-.9,0,0-.1-.2,0-.3,0,0,.2,0,.3,0,.1,0,.7.2.8.4.1.1,0,.3,0,.4,0,.2-.1.3-.2.5,0,0-.2.2-.3.2,0,0,0,0,0,0,0,0-.2,0-.4,0"/>
  <path class="st0" d="M191.3,43.7c0,.3-.3.4-.7.6-.5.3-.9.5-1.4.7-.4.2-.4.3-.2.4.2,0,1.4,0,1.7-.1.3,0,.9-.3,1.2-.5.2-.2.8-.4.8-.6,0-.2-.4-.7-.8-.7-.4,0-.6,0-.6.3"/>
  <path class="st0" d="M195.3,43.5c0,0,.6.2.7.4.4.4,0,.5,0,.7,0,0-.6.5-.6.5,0,0-.6.3-.9.3,0,0-.3,0-.5,0-.1,0-.2-.1-.2-.2,0-.2.6-.7.7-.8.2-.2.4-.5.5-.7,0-.1,0-.3.2-.2Z"/>
  <path class="st0" d="M192.4,42.5c0-.1,0-2.6,0-2.7,0-.2,0-.8,0-1,0-.2.2-.3,0-.5,0-.1-.3-.2-.3-.2,0,0-.7-.2-.9,0-.3.1-.2.3-.1.5,0,0,.1.2.1.3,0,0,0,.2,0,.2,0,0,0,3.1,0,3.2,0,.2,0,.3,0,.4,0,.2.6.3.8.3.2,0,.4,0,.3-.5Z"/>
</svg>