<?xml version="1.0" encoding="UTF-8"?>
<svg id="_レイヤー_1" data-name="レイヤー 1" xmlns="http://www.w3.org/2000/svg" viewBox="0 0 48 40">
  <defs>
    <style>
      .cls-1 {
        fill-rule: evenodd;
      }

      .cls-1, .cls-2 {
        fill: #0a0c0f;
      }
    </style>
  </defs>
  <path class="cls-2" d="M.6,7.9c.09.03.24-.01.34-.1.02-.02.16-.14.19-.2.09-.18.16-.36.22-.54,0,.03.02.07.02.1.16.09.31.63.36.72.03.02.18.19.23.21.05.02.25.03.29.03.06-.04.13-.09.2-.12.12-.12.19-.29.2-.42.02-.19,0-.49.02-.57,0-.03,0-1.22-.01-1.85.18-.04.5-.09.6-.08,0,.07.09.28.13.36.05.1.2.31.41.33,0,0,.08,0,.15-.04.18.16.54.34.64.32.12-.02.17-.11.17-.46,0,0,0,0,.01,0,.07,0,.13-.01.2-.02-.03,1.14-.04,2.08.01,2.17.15.25.42.31.5.34.24.08,1.01.05,1.37.03.12,0,.81-.05.96-.26.15-.21-.02-.43-.04-.61-.03-.12-.16-.64-.17-.7-.11-.39-.2-.62-.27-.71.07-.06.09-.19.09-.48,0-.13-.03-.65-.02-.74.01-.18.01-.57.03-.72.08-.14.06-.28,0-.45-.03-.1-.15-.28-.2-.33-.02-.01-.6-.26-.74-.13-.21.1-.14.28-.12.39.03.07.08.16.09.27,0,.07.02.16.02.23,0,0,0,.36,0,.68-.03.01-.07.03-.11.03-.06,0-.15.01-.26.02,0-.62.02-1.26.03-1.81.19-.06.37-.12.48-.18.28-.14.92-.37.96-.59.04-.22-.26-.83-.64-.88-.38-.05-.63-.14-.64.2,0,.1-.05.18-.13.25,0-.08,0-.14.01-.19.02-.16.11-.36-.18-.54-.33-.2-.95-.27-1.06-.07-.16.28.1.46.1.69,0,.17,0,.39,0,.64-.38.16-.75.3-1.19.43-.22.07-.34.13-.38.2,0-.09-.02-.18-.04-.21-.03-.05-.32-.49-.39-.48-.07,0-.16.01-.2.03-.02.01-.06.09-.07.12.03.04-.72.97-.81.98-.07-.14-.13-.19-.21-.33.11-.09.99-1.02,1.06-1.17.13-.12.18-.15.19-.29.02-.23-.15-.32-.17-.39-.02-.06-.17-.12-.27-.19-.08-.06-.27-.11-.37-.11-.13,0-.62.09-.66.11-.06.06-.04.18-.01.21.03.05.15.13.16.18.02.07-.44.99-.51,1-.08.02-.12-.29-.52,0-.49.37-.4.8-.18.87.13.04.54.76.7.94-.1.23-.32.22-.39.26-.11.06-.28,0-.4.01-.1-.01-.17.07-.16.19,0,.03,0,.22,0,.23,0,.02.23.65.28.62.13.16.25.11.37.11.11,0,.17-.09.26-.12.03,0,.42-.07.56-.09.02.08.01.45.03.74.02.26,0,.65-.01.83,0,.11,0,.24-.09.25-.06,0-.21.01-.27,0,.11-.33.18-.68.2-1.08.12-.15-.01-.32-.2-.37-.08-.01-.47-.1-.63-.1-.08.02-.1.08-.07.2.03.1.06.2.05.32-.02.18-.04.42-.1.6-.05.17-.08.33-.18.51-.13.24-.22.48-.42.67,0,0,.04.06.05.06.06,0,.46.03.55.06M6.47,5.45c.11.15.55.39.72.41-.02.05-.03.12-.04.2,0,.15-.13.77-.16.9-.01,0-.86.04-.92,0,0-.1,0-.71,0-1.49.14,0,.29-.01.39-.02M2.78,3.71s.64-.74.65-.76c.02-.03.03-.08.03-.13.01.03.04.05.08.08.14.1.98.12,1.48.09-.01.53-.03,1.12-.05,1.69-.08,0-.17.02-.25.02,0-.2,0-.52.03-.65.08-.14.06-.28,0-.45-.03-.1-.14-.28-.2-.33-.01-.01-.58-.26-.72-.13-.2.1-.13.28-.12.39.03.07.08.16.09.27,0,.07.02.16.02.23,0,0,0,.23,0,.48-.12-.27-.26-.54-.34-.6-.14-.16-.29-.3-.34-.33-.07-.05-.17,0-.18.13-.03.1-.02.26.02.37-.21.03-.59.15-.79.17.15-.13.44-.36.57-.53"/>
  <path class="cls-2" d="M3.23,5.49s-.08-.08-.13-.1c0,.04-.21-.05-.24-.04-.02.04-.08.09-.1.1-.03.21.13.83.13.84.06.33.14.65.27,1.01.04.12.13.28.23.34.11.04.23,0,.31-.06.03-.02.19-.22.21-.26.12-.25.04-.6-.03-.81-.07-.21-.14-.37-.23-.53-.13-.21-.27-.38-.43-.51"/>
  <path class="cls-2" d="M8.73,39.36c.15-.13-.08-.78-.48-1.15-.07-.06-.38-.27-.47-.26-.05,0-.23.1-.27.11-.02,0-.81,0-1.71.01,0-.38-.01-.83-.02-1.29.11,0,.2,0,.27,0,.44-.02.78,0,.87,0,.08,0,.47,0,.51,0,.1,0,.28-.02.33-.11.15-.11.04-.74-.29-1.04-.06-.05-.33-.22-.41-.21-.05,0-.22.09-.26.1-.03,0-.3,0-.7.01-.1,0-.21,0-.32.02,0-.58,0-1.02.01-1.05.07-.09.11-.18.13-.27.75,0,1.4,0,1.46,0,.08,0,.45.01.48.02.1,0,.31-.05.35-.14.13-.12-.07-.72-.42-1.06-.06-.06-.33-.25-.41-.23-.05,0-.21.09-.24.1-.02,0-1.48.01-2.57.04-1.26.04-2.6.02-2.61.02-.12-.02-.25-.06-.31.12-.03.05-.05.47.15.84.21.39.48.39.52.4.08.01.3-.02.37-.03.04,0,.71-.01,1.59-.03.02.08.03.17.03.27,0,0,.03,2.39,0,3.56-.25,0-.49,0-.74.01,0-.69,0-1.52.03-1.58.19-.24.08-.39-.02-.5-.4-.41-.89-.47-1.25-.41-.31.08-.3.29-.28.37.05.05.21.32.21.7,0,0,.02.82.01,1.45-.49,0-.81,0-.82,0-.13-.03-.29-.06-.35.12-.03.06-.06.46.18.86.25.42.55.43.6.44.09.02.34-.02.42-.03.05,0,1.27-.02,2.48-.04,1.24-.02,2.92,0,3.02.02.09,0,.51.02.54.02.11,0,.35-.05.4-.15"/>
  <path class="cls-2" d="M40.46,5.33c.11.18.13,1.71.18,1.91.05.19.36.22.51.21.14,0,.35-.13.36-.15.33-.04.99-.02,1.23-.03.06.12.2.17.34.19.14.02.24,0,.33-.04.07-.02.16-.19.17-.22,0-.03.09-1.1.11-1.14.06-.09.17-.18.19-.28.02-.11-.19-.62-.26-.69-.36-.36-.51-.25-.79-.16-.02,0-1.23.05-1.54.11-.03,0-.48-.13-.67-.07-.18.06-.28.18-.17.36M41.48,5.83c.11-.04,1.17-.1,1.2-.09-.02.3,0,.42-.02.69-.29.04-.84.03-1.14.07-.02-.11-.06-.62-.04-.67"/>
  <path class="cls-2" d="M40.79,4.63s.03.02.04.03c.01.01.01.03.02.04.04.03.13.06.23.07.1,0,.25-.04.39-.05.28-.02.57-.03.85-.05.15-.01.54-.01.67-.02.07,0,.14,0,.2,0,.03,0,.07-.03.11-.04.09-.03.17-.05.22-.12-.02-.12-.03-.26-.1-.37-.04-.06-.12-.1-.18-.15-.07-.06-.11-.15-.21-.17-.06.05-.12.03-.21.04-.13,0-.51.01-.66.02-.28.03-.56.05-.83.06-.18,0-.59,0-.61.02-.08.02-.15.16-.16.23-.02.08.11.29.12.33.05.03.06.09.09.13"/>
  <path class="cls-2" d="M40.44,2.5s.04.02.05.03c.02.01.02.03.03.04.05.04.16.07.29.07.13,0,.31-.04.48-.06.35-.03.71-.04,1.06-.07.19-.02.67-.02.83-.04.09,0,.18,0,.25,0,.04,0,.11.01.17,0,.02,0,.04-.01.05-.02,0,0,0,0,0,.01.03.03.09.05.17.05.05,0,.11-.02.18-.03-.05.38-.31.7-.47.87-.02-.12-.03-.24-.1-.34-.04-.06-.12-.09-.19-.15-.07-.05-.11-.15-.22-.17-.06.05-.13.03-.22.04-.13.01-.53.02-.68.04-.29.03-.58.06-.86.08-.18,0-.61.02-.63.03-.08.02-.15.16-.16.24-.01.08.12.29.13.34.05.03.06.09.1.13,0,.01.03.01.04.03.01.01.01.03.03.04.05.03.14.06.24.06.11,0,.26-.04.4-.06.29-.03.59-.04.88-.07.16-.01.56-.02.69-.04.07,0,.15,0,.21,0,.03,0,.07-.03.11-.04.04-.02.08-.03.12-.05,0,0,0,0,0,0-.1.12.2.16.22.16.02,0,.04.01.07.01-.02.05,0,.09.02.13.03.04.09.08.1.14,0,.03.02.08.02.12,0,0,.11,2.07.07,2.13-.05.09-.02.16.01.21.06.08.36.19.5.19.1,0,.19,0,.26-.02-.09.11-.21.22-.3.3-.09.09-.6.46-.66.6-.04.04.04.11.11.14.09.03.32,0,.35,0,.22-.04.64-.22.69-.27.01,0,.6-.37.67-.38.16-.03.24-.19.03-.46.01,0,.02,0,.03,0,.11,0,.21,0,.29,0,0,.02,0,.05,0,.07.03.09.39.59.53.72.15.14.34.23.44.27.11.04.33.09.51,0,.18-.09-.06-.64-.25-.77-.09-.07-.37-.2-.63-.3.01,0,.02,0,.03,0,.08.03.2.05.4.06.14,0,.36-.02.35-.23,0-.07,0-1.81.01-1.85.01-.1,0-.37.03-.45.06-.12.12-.15.06-.24-.03-.05-.2-.14-.25-.16-.01,0-.62-.13-.76-.06-.12.03-.15.08-.14.12-.14,0-.34.01-.66.02-.36.01-.65.02-.87.03-.05-.02-.09-.05-.11-.06,0,0-.19-.04-.38-.06.12-.1.26-.26.34-.52.02-.08.05-.16.07-.24.06.15.12.29.16.35.1.16.23.27.3.32.07.05.23.12.37.04.01,0,.02-.02.03-.04.07.03.17.05.18.05.05.01.13.02.2.03.05,0,.18,0,.21,0,.1-.02.39-.2.52-.61.17.29.27.4.29.42.1.15.29.19.51.18.04,0,.47-.07.5-.07.04-.02.11-.09.06-.12-.3-.21-.76-.77-.88-.91-.03-.03-.05-.07-.08-.11.11,0,.23,0,.28-.01.05,0,.11,0,.15,0,.02,0,.07,0,.1,0,.07-.03.09-.07.13-.13.02-.07-.02-.2-.07-.29-.03-.05-.06-.1-.11-.15-.05-.05-.08-.13-.15-.14-.06-.02-.09.03-.15.03-.07,0-.23,0-.35.02,0-.05,0-.11.02-.17.13,0,.31,0,.38-.02.05,0,.11,0,.15,0,.02,0,.07,0,.1,0,.07-.03.09-.07.13-.13.02-.07-.02-.2-.07-.29-.03-.05-.06-.1-.11-.15-.05-.05-.08-.13-.15-.14-.06-.02-.09.03-.15.03-.04,0-.13,0-.22.01,0-.01,0-.02,0-.02,0-.03.07-.19.04-.23-.03-.14-.16-.21-.31-.24-.12-.05-.35-.07-.45-.04-.13.07-.1.12-.07.2.03.08.06.07.07.17,0,.04.01.12.01.24-.05,0-.11,0-.16,0-.13,0-.43,0-.45.02-.06.02-.11.13-.12.19,0,0,0,.02,0,.03-.03-.05-.06-.1-.11-.14-.05-.04-.08-.12-.15-.14-.06-.02-.09.03-.15.04-.04,0-.12.01-.2.02,0,0,0-.02,0-.02,0-.03.07-.19.04-.23-.03-.14-.16-.21-.31-.24-.12-.05-.35-.07-.46-.05-.13.07-.1.11-.07.2.03.08.06.07.07.17,0,.04.01.13.01.26-.06,0-.11.01-.17.02-.13,0-.43.02-.44.03-.02,0-.04.03-.06.05,0-.03-.02-.07-.04-.1-.04-.06-.11-.1-.17-.16-.06-.06-.1-.15-.2-.18-.07.05-.12.02-.21.02-.13,0-.51-.02-.66-.01-.29.01-.56.02-.84.01-.18,0-.59-.03-.61-.02-.08.02-.16.15-.18.22-.02.08.09.3.1.34.05.03.05.09.09.14,0,.01.03.02.04.03.01.01,0,.03.02.04.04.04.12.07.23.08.1,0,.25-.02.39-.03.28,0,.57,0,.86,0,.15,0,.54.02.67.02.07,0,.14.02.2.01.03,0,.07-.02.11-.03.07-.02.14-.04.19-.07.02.05.04.09.04.1.04.02.04.07.07.11,0,0,.02.01.03.02,0,.01,0,.03.02.03.03.03.09.05.17.05.08,0,.18-.04.28-.05.01,0,.03,0,.04,0,0,.05,0,.1-.01.15-.03,0-.07,0-.1,0-.11,0-.37.02-.43.03-.03-.03-.06-.05-.09-.08-.08-.06-.14-.16-.26-.18-.11-.02-.15.03-.26.04-.16.01-.63.02-.81.04-.35.03-.7.07-1.03.08-.22,0-.73.02-.76.03-.09.02-.18.17-.19.25-.02.08.15.31.16.36.06.03.08.1.12.14M46.41,5.14c-.12,0-.35.01-.78.02-.32,0-.58.02-.78.03,0-.08,0-.16,0-.24.15,0,.4-.02.77-.03.4-.01.65-.02.8-.02,0,.08,0,.16,0,.24M44.87,5.94c0-.06,0-.13,0-.19.15,0,.39-.02.75-.03.39-.01.64-.02.79-.02,0,.07,0,.14,0,.2-.12,0-.35.01-.77.02-.31,0-.57.02-.77.03M46.4,4.16c0,.05,0,.12,0,.19-.12,0-.35.01-.78.02-.32,0-.59.02-.79.03,0-.05,0-.12,0-.18.15,0,.4-.02.77-.03.4-.01.65-.02.8-.02M45.56,3.3c0-.21-.09-.52-.17-.63-.05-.07-.19-.19-.34-.31.07,0,.14-.01.18-.01.05,0,.11,0,.15,0,.02,0,.07,0,.1,0,.07-.03.09-.07.13-.13.01-.04,0-.09-.02-.15.02.06.05.12.05.14.03.03.04.08.07.11,0,0,.02.01.03.02,0,.01,0,.03.02.03.03.03.09.05.17.06.04,0,.1,0,.15-.02-.07.4-.37.75-.5.89M45.2,1.53c.05,0,.11,0,.15,0,.02,0,.07,0,.1,0,.07-.03.09-.07.13-.13,0-.01,0-.02,0-.03.03.03.04.07.06.11,0,0,.02.01.03.02,0,.01,0,.03.02.03.03.03.09.05.17.06.08,0,.18-.03.28-.04.02,0,.03,0,.05,0,0,.06,0,.12-.02.18-.02,0-.04,0-.05,0-.13,0-.43,0-.45.02-.06.02-.11.13-.12.19,0,.03,0,.07.02.12-.02-.04-.04-.08-.06-.12-.03-.05-.06-.1-.11-.14-.05-.04-.08-.12-.15-.14-.06-.02-.09.03-.15.04-.06,0-.18.01-.29.02,0-.05,0-.09.01-.14.13-.01.31-.02.38-.03"/>
  <path class="cls-2" d="M47.8,38.95c-.07-.03-.92-.48-1.27-.73-.05-.03-.31-.28-.61-.57.29-.34.62-.72.83-1.06.25-.19.15-.25.36-.38.13-.08.21-.14.15-.34,0,0,0-.01.01-.02-.03-.18-.03-.36-.13-.52-.05-.08-.16-.14-.25-.21-.09-.08-.14-.21-.28-.24-.09.08-.17.04-.29.05-.12,0-.41.01-.64.02,0-.21,0-.46,0-.68.25,0,.65-.01.8-.02.1,0,.2.01.28,0,.04,0,.1-.03.16-.06.13-.04.24-.07.31-.16-.03-.17-.03-.35-.13-.5-.05-.08-.16-.13-.25-.2-.09-.07-.15-.2-.29-.24-.09.07-.17.04-.3.05-.11,0-.36.01-.58.02,0-.18,0-.36.01-.43.07-.21.14-.27.07-.42-.04-.09-.25-.23-.31-.28-.02-.01-.75-.22-.92-.09-.25.1-.16.26-.14.36.04.06.1.15.11.24,0,.06.03.14.03.2,0,0,0,.21,0,.5-.12,0-.25.01-.37.01-.24,0-.82,0-.86.02-.11.03-.21.21-.23.31-.01.07.05.21.11.32-.06-.08-.16-.16-.2-.2-.01-.01-.61-.23-.76-.11-.2.09-.14.25-.12.35.03.06.08.15.09.24,0,.06.02.14.02.2,0,0,.01,1.93,0,2.97-.02,0-.03.01-.06.01-.05,0-.13,0-.22,0,0-.67.01-2.88.02-2.95.01-.16,0-.63.03-.76.06-.2.12-.26.06-.41-.03-.09-.2-.23-.25-.28-.01-.01-.61-.23-.76-.11-.2.09-.14.25-.12.35.03.06.08.14.09.24,0,.06.02.14.02.2,0,0,.02,3.52-.02,3.62-.02.07-.03.13-.03.18-.07,0-.13,0-.2.01,0-.92.01-2.27.02-2.33.01-.16,0-.63.03-.76.06-.2.12-.26.06-.41-.03-.09-.2-.24-.25-.28-.01-.01-.61-.23-.76-.11-.2.09-.14.25-.12.35.03.06.08.15.09.24,0,.06.02.14.02.2,0,0,.02,3.53-.02,3.63-.05.15-.03.27,0,.35.05.14.61.44.75.41.11-.02.16-.08.17-.29.27-.03.55-.03.83-.05.13-.01.44-.01.6-.02.1.15.61.41.74.39.13-.02.18-.11.17-.46,0-.12.01-3.07.02-3.15.01-.16,0-.63.03-.76.06-.17.1-.24.08-.35.05.04.07.12.12.17.01.01.04.02.06.04.02.02.02.04.03.06.06.05.18.09.32.09.15,0,.35-.05.54-.07.07,0,.14-.01.21-.01,0,.29,0,.55,0,.72-.1,0-.2.01-.3.01-.24,0-.81.01-.84.03-.1.03-.21.22-.23.33-.02.11.15.41.16.47.07.04.08.13.13.19.01.01.04.02.06.04.02.02.02.04.03.06.06.05.18.09.32.09.14,0,.34-.05.53-.07.38-.04.77-.04,1.15-.07-.12.17-.28.4-.51.71-.05-.05-.09-.08-.11-.1-.11-.08-.62-.43-.64-.42,0,.03-.38-.01-.86.25-.22.25-.02.4.26.55.01,0,.27.31.54.63-.28.29-.62.62-.98.91-.26.21-.54.4-.78.54-.15.09-.1.15.03.21.13.06.3.12.46.14.17.02.57-.03.97-.24.28-.15.63-.27,1.09-.69.34.35.97.98,1.08,1.05.26.17.66-.06.63-.07.04-.03.38-.2.42-.22.03-.01.54-.11.56-.12.09-.06.12-.29.05-.32"/>
  <path class="cls-2" d="M24.57,40c-2.67,0-5.26-.53-7.7-1.57-2.36-1.01-4.47-2.45-6.28-4.29-1.82-1.84-3.24-3.97-4.24-6.36-1.03-2.47-1.55-5.09-1.55-7.79s.52-5.32,1.55-7.79c1-2.38,2.42-4.52,4.24-6.36s3.93-3.28,6.28-4.29c2.44-1.04,5.03-1.57,7.7-1.57s5.26.53,7.7,1.57c2.36,1.01,4.47,2.45,6.28,4.29s3.24,3.97,4.24,6.36c1.03,2.47,1.55,5.09,1.55,7.79s-.52,5.32-1.55,7.79c-1,2.38-2.42,4.52-4.24,6.36-1.82,1.84-3.93,3.28-6.28,4.29-2.44,1.04-5.03,1.57-7.7,1.57M24.57,4.59c-4.07,0-7.89,1.6-10.77,4.51-2.88,2.91-4.46,6.78-4.46,10.89s1.58,7.98,4.46,10.89c2.88,2.91,6.7,4.51,10.77,4.51s7.89-1.6,10.77-4.51c2.88-2.91,4.46-6.78,4.46-10.89s-1.58-7.98-4.46-10.89c-2.88-2.91-6.7-4.51-10.77-4.51"/>
  <path class="cls-1" d="M14.73,32.62c-.71.35-3.36-3.54-2.7-4.64.92-1.15,1.82-.39,2.44-.43,9.55-.62,16.42-.49,20.08-.51.15-.14.93.05,1.64.35,1.46,1.16,2.21,2.46,2.38,3.44.12.7-.52,1.01-.79,1.13-.51.21-1.96.02-2.14.01-6.38-.22-12.06-.09-20.93.65"/>
  <path class="cls-1" d="M17.72,24.49c-1.19-.14-3-3.27-2.45-4.32.78-1.1,1.59-.41,2.13-.45,8.03-.54,11.44-.49,14.65-.58.13-.14.82.03,1.45.3,1.3,1.06,1.98,2.27,2.15,3.2.12.66-.43.96-.67,1.08-.44.21-1.72.05-1.88.05-5.51.13-7.78.19-15.39.73"/>
  <path class="cls-1" d="M17,17.05c-.66.36-3.23-3.41-2.63-4.51.84-1.15,1.7-.43,2.29-.47,8.62-.56,14.84-.42,15.22-.61.9-.37,1.38-.1,2.06.32,1.39,1.11,2.13,2.37,2.31,3.34.13.69-.46,1.01-.72,1.12-.47.22-1.85.05-2.01.05-5.92.13-8.36.2-16.52.76"/>
  <path class="cls-1" d="M28.17,26.88c-.07-1.21-.13-16.72.47-17.94.43-.87.6-1.68-.22-2.43-.82-.75-2.77-1.73-4.95-1.39-.79,0-1.33.34-1.61.97-.29.64.71,1.61.67,1.99-.04.38.06,18.64-.22,20.35-.18,1.1-.58.79-.1,1.66.57,1.04,3.3,1.79,4.4,1.83.45.01,1.39-.29,1.44-1.26.08-1.48.2-2.45.12-3.78"/>
  <path class="cls-1" d="M16.67,17.68c-2.44,3.82-5.15,4.71-5.28,4.56-.21.03-.65-.3-.8-.47.83-1.41,2.25-4.13,2.67-5.66.43-1.53.96-2.74,1.26-6-.1-.5-.73-.76-.96-1.22-.26-.41-.19-1.09.17-1.39.62-.48,2-.5,2.56-.45,2.23.18,3.35,1.09,3.95,1.72.91.93.5,1.93-.14,2.57-.23.23-.48,1.99-3.42,6.34"/>
</svg>